<svg id="Слой_1" data-name="Слой 1" xmlns="http://www.w3.org/2000/svg" viewBox="0 0 1584 576"><defs><style>.cls-1{fill:#242e24;}.cls-2{fill:#c4e040;}.cls-3{fill:#ebe4da;}</style></defs><g id="logo_full"><path class="cls-1" d="M406.09,260.14A16.84,16.84,0,0,0,409,270a28.2,28.2,0,0,0,7.35,7.21c3,2.06,6.16,4.11,9.51,6.16s6.79,4.06,10,6.3a31,31,0,0,1,8,8A19.66,19.66,0,0,1,447,309a22.41,22.41,0,0,1-3.36,12.11,23.68,23.68,0,0,1-9.73,8.6q-6.36,3.22-15.74,3.22a44.6,44.6,0,0,1-6.65-.49,36.7,36.7,0,0,1-6.58-1.61,47.05,47.05,0,0,1-6.51-2.79,2,2,0,0,1-.91-1,9.19,9.19,0,0,1-.35-1.61l-1.82-19c-.09-.46.12-.72.63-.77s.82.12.91.49a54.5,54.5,0,0,0,2.8,8.54,32.88,32.88,0,0,0,4.76,8,23,23,0,0,0,7.14,5.88,20.54,20.54,0,0,0,9.8,2.23,21,21,0,0,0,7.9-1.54,13.75,13.75,0,0,0,6.3-5c1.63-2.33,2.45-5.51,2.45-9.52a20.25,20.25,0,0,0-3-11.41,30.74,30.74,0,0,0-7.63-7.9,103.77,103.77,0,0,0-9.79-6.3q-4.9-3.08-9.45-6.3A28.14,28.14,0,0,1,400.7,275a19.76,19.76,0,0,1-2.87-11q0-7.43,3.78-12.25a22.82,22.82,0,0,1,9.8-7.21,33.69,33.69,0,0,1,12.46-2.38A45.24,45.24,0,0,1,432,243a36.57,36.57,0,0,1,8.26,2.59,3.58,3.58,0,0,1,1.61,1,2.17,2.17,0,0,1,.49,1.33l1,16c0,.37-.23.58-.7.63a.9.9,0,0,1-1-.49,25.88,25.88,0,0,0-1.54-6.23,24.17,24.17,0,0,0-3.64-6.51,18.77,18.77,0,0,0-6-5,18.41,18.41,0,0,0-8.81-2,15.61,15.61,0,0,0-8.89,2.31,13.85,13.85,0,0,0-5,5.88A18.39,18.39,0,0,0,406.09,260.14Z"/><path class="cls-1" d="M498.46,324.17c-.19-.52-.51-.68-1-.49a20.34,20.34,0,0,1-7,1.82,4.32,4.32,0,0,1-4.06-2.24c-.84-1.49-1.25-3.87-1.25-7.14V290q0-6.72-2.95-10.43c-2-2.47-4.85-3.71-8.67-3.71a29.15,29.15,0,0,0-7.91,1.26,41,41,0,0,0-8.4,3.43,30,30,0,0,0-6.58,4.69,7.31,7.31,0,0,0-2.58,5.18,4.38,4.38,0,0,0,1.12,2.87,4.32,4.32,0,0,0,3.49,1.33c2,0,3.27-.63,3.92-1.89a15.4,15.4,0,0,0,1.4-3.85,21.82,21.82,0,0,1,1.47-4.48,10.73,10.73,0,0,1,3.29-4.13,9,9,0,0,1,5.74-1.75,7.47,7.47,0,0,1,6.37,3.5q2.44,3.5,2.45,12.18v9.48l-15.4,5.77a46.27,46.27,0,0,0-8.25,3.78,14.08,14.08,0,0,0-4.69,4.27,9.63,9.63,0,0,0,1.33,11.9c1.86,1.91,4.57,2.87,8.11,2.87a16.5,16.5,0,0,0,5.67-1,28.77,28.77,0,0,0,6.09-3.21l7.24-4.71a15.16,15.16,0,0,0,1.58,6c1.12,2,2.28,3,3.5,3a2.47,2.47,0,0,0,1.12-.28L498,325.22A.72.72,0,0,0,498.46,324.17Zm-27,.63a15,15,0,0,1-3.78,1.82,11.21,11.21,0,0,1-2.94.42,7.28,7.28,0,0,1-5.74-2.38,8.19,8.19,0,0,1-2.1-5.6,7.47,7.47,0,0,1,.77-3.36,8.18,8.18,0,0,1,2.45-2.8,17.89,17.89,0,0,1,4.2-2.24l13-5v15c0,.22,0,.43,0,.64Z"/><path class="cls-1" d="M547,231.8c-2.93-1.45-6.88-2.17-11.82-2.17q-14.41,0-22.25,9.93t-8.54,33.17q-.15,3.51-2.1,4.9c-1.31.94-3.92,1.4-7.84,1.4-.28,0-.42.31-.42.91s.14.91.42.91a33.22,33.22,0,0,1,6.72.49,3.75,3.75,0,0,1,2.8,2.1,13.33,13.33,0,0,1,.7,5V319.9c0,4-.61,6.63-1.82,7.84s-3.83,1.82-7.84,1.82q-.42,0-.42.84c0,.56.14.83.42.83q2.65,0,6.23-.13c2.38-.1,4.78-.14,7.21-.14,3.08,0,6.06,0,8.95.14s5.88.13,9,.13c.28,0,.42-.27.42-.83s-.14-.84-.42-.84a42.45,42.45,0,0,1-9-.7,5.11,5.11,0,0,1-3.84-2.8,16,16,0,0,1-.92-6.16v-38q3.69.09,7.07.37a64.07,64.07,0,0,1,10.43,1.82c.37.09.7-.28,1-1.12a7.16,7.16,0,0,0,.42-2.24,8.63,8.63,0,0,0-.28-2.38c-.19-.65-.42-1-.7-1-3.83.38-7.44.7-10.85,1-2.29.19-4.66.29-7.07.35v-8.89q0-19.86,5-28.83t12.67-9a11.48,11.48,0,0,1,6.23,1.54,17.25,17.25,0,0,1,4.55,4.33,14.1,14.1,0,0,0,2.59,2.73,4.53,4.53,0,0,0,2.86.91,5.47,5.47,0,0,0,3.43-1.12,3.94,3.94,0,0,0,1.47-3.36Q551.41,234,547,231.8Z"/><path class="cls-1" d="M572.17,323.75c-.32-.42-.58-.54-.76-.35a68.66,68.66,0,0,1-6.16,3.22,19.1,19.1,0,0,1-7.84,1.4,20,20,0,0,1-11.9-3.5,21.56,21.56,0,0,1-7.41-9.66,37.08,37.08,0,0,1-2.52-14.14,42.53,42.53,0,0,1,.29-5.05l28.82-.12h5.74a1.31,1.31,0,0,0,1.32-.91,7.9,7.9,0,0,0,.35-2.73q0-7.56-4.12-11.76T555.87,276a28.85,28.85,0,0,0-14.9,4,29.22,29.22,0,0,0-10.71,10.78A30,30,0,0,0,526.34,306a30.53,30.53,0,0,0,2.87,13,24.08,24.08,0,0,0,8.61,10q5.73,3.84,14.13,3.84A30.07,30.07,0,0,0,562.38,331a32.29,32.29,0,0,0,10-6.23C572.57,324.52,572.5,324.17,572.17,323.75Zm-20.92-45a10.34,10.34,0,0,1,8.82,4.13q2.67,3.57,2.6,10.46l-26.53.47a22.44,22.44,0,0,1,3.57-9.18A13.29,13.29,0,0,1,551.25,278.75Z"/><path class="cls-1" d="M634.91,310.1c-.56-.09-.84,0-.84.28q-1.4,8.26-5.94,13.09a14.87,14.87,0,0,1-11.27,4.83h-11.2a25.9,25.9,0,0,1-6.93-.7,4.9,4.9,0,0,1-3.21-2.66,13.63,13.63,0,0,1-.91-5.6V287.15H611.4q7,0,10,2.66c2,1.77,3,4.71,3,8.81,0,.19.28.29.84.29s.84-.1.84-.29q0-3.5-.14-6.57c-.1-2.05-.14-4.15-.14-6.3,0-1.68,0-3.29.07-4.83s.07-3.71.07-6.51c0-.18-.28-.28-.84-.28s-.84.1-.84.28q0,5.18-2.87,7.49c-1.92,1.54-5.11,2.31-9.59,2.31H594.61V255.8a14.08,14.08,0,0,1,.91-5.74,5,5,0,0,1,3.35-2.66,27.87,27.87,0,0,1,7.21-.7h8.54a14.63,14.63,0,0,1,10.71,4.06q4.13,4.06,4.54,11.62c0,.28.26.39.78.35s.76-.21.76-.49L631.14,245a1.12,1.12,0,0,0-1.27-1.26H573.61c-.19,0-.28.28-.28.84s.09.84.28.84a28.53,28.53,0,0,1,7.7.77,5.19,5.19,0,0,1,3.43,2.8,15.54,15.54,0,0,1,.91,6.09v64.8a16.07,16.07,0,0,1-.91,6.16,4.93,4.93,0,0,1-3.43,2.8,31.45,31.45,0,0,1-7.7.7c-.19,0-.28.28-.28.84s.09.83.28.83h58.65c1.49,0,2.24-.69,2.24-2.1q0-4.47.34-9.65t.91-8.82C635.75,310.38,635.47,310.2,634.91,310.1Z"/><path class="cls-1" d="M678.58,277.63a11.41,11.41,0,0,0-5.81-1.68,9.89,9.89,0,0,0-4.69,1.33,26.7,26.7,0,0,0-5.81,4.76c-1.43,1.46-3.11,3.32-5,5.56v-.17q0-5.6-1.54-8.54T653.17,276a2.74,2.74,0,0,0-.84.14l-16.23,7.7c-.37.19-.44.51-.21,1s.53.65.91.56a44.2,44.2,0,0,1,4.27-1.54,11.91,11.91,0,0,1,3.29-.56,3.9,3.9,0,0,1,3.85,2.17,16.63,16.63,0,0,1,1,6.79V319.9q0,5.88-1.61,7.77c-1.08,1.26-3.43,1.89-7.07,1.89q-.42,0-.42.84c0,.56.14.83.42.83,1.58,0,3.49,0,5.73-.13s4.58-.14,7-.14c3.36,0,6.56,0,9.59.14s5.67.13,7.91.13c.37,0,.56-.27.56-.83s-.19-.84-.56-.84a40.61,40.61,0,0,1-8.68-.7,5.32,5.32,0,0,1-3.92-2.87,15.27,15.27,0,0,1-1-6.09v-30q2.28-2.62,3.78-4.17a16.48,16.48,0,0,1,3.78-3.15,6,6,0,0,1,2.66-.7,6.26,6.26,0,0,1,3.64,1,28.54,28.54,0,0,1,2.66,2.1,4.42,4.42,0,0,0,3.07,1.12,4.52,4.52,0,0,0,3.44-1.26,4.33,4.33,0,0,0,1.18-3.08Q681.44,279.31,678.58,277.63Z"/><path class="cls-1" d="M732.39,324.17c-.19-.52-.52-.68-1-.49a20.34,20.34,0,0,1-7,1.82,4.31,4.31,0,0,1-4.06-2.24q-1.26-2.24-1.26-7.14V290q0-6.72-2.94-10.43t-8.67-3.71a29.09,29.09,0,0,0-7.91,1.26,41,41,0,0,0-8.4,3.43,30,30,0,0,0-6.58,4.69,7.33,7.33,0,0,0-2.59,5.18,4.43,4.43,0,0,0,1.12,2.87,4.35,4.35,0,0,0,3.5,1.33c2,0,3.27-.63,3.92-1.89a15.4,15.4,0,0,0,1.4-3.85,21.82,21.82,0,0,1,1.47-4.48,10.63,10.63,0,0,1,3.29-4.13,9,9,0,0,1,5.74-1.75,7.45,7.45,0,0,1,6.36,3.5q2.46,3.5,2.46,12.18v9.48l-15.4,5.77a46.74,46.74,0,0,0-8.26,3.78,13.94,13.94,0,0,0-4.68,4.27,9.24,9.24,0,0,0-1.48,5.11,9.44,9.44,0,0,0,2.8,6.79c1.87,1.91,4.57,2.87,8.12,2.87a16.5,16.5,0,0,0,5.67-1,28.77,28.77,0,0,0,6.09-3.21l7.24-4.71a15,15,0,0,0,1.58,6c1.11,2,2.28,3,3.49,3a2.41,2.41,0,0,0,1.12-.28L732,325.22A.73.73,0,0,0,732.39,324.17Zm-27,.63a15.36,15.36,0,0,1-3.78,1.82,11.21,11.21,0,0,1-2.94.42,7.28,7.28,0,0,1-5.74-2.38,8.19,8.19,0,0,1-2.1-5.6,7.47,7.47,0,0,1,.77-3.36,8.07,8.07,0,0,1,2.45-2.8,17.89,17.89,0,0,1,4.2-2.24l13-5v15c0,.22,0,.43,0,.64Z"/><path class="cls-2" d="M773.2,324.32a10.11,10.11,0,0,0,.88,4.71c.59,1.07,1.82,1.81,3.68,2.23a42.11,42.11,0,0,0,8.39.62c.21,0,.31.21.31.62s-.1.62-.31.62q-3.31,0-7.2-.1t-8.44-.11q-3.32,0-6.42.11c-2.07.07-3.94.1-5.6.1-.14,0-.2-.21-.2-.62s.06-.62.2-.62a24.75,24.75,0,0,0,5.91-.52,3.69,3.69,0,0,0,2.64-2.07,11.94,11.94,0,0,0,.67-4.56v-48a11.58,11.58,0,0,0-.67-4.51,3.86,3.86,0,0,0-2.64-2.07,22.82,22.82,0,0,0-5.91-.57c-.14,0-.2-.2-.2-.62s.06-.62.2-.62c1.66,0,3.51.05,5.54.16s4.16.15,6.37.15c1.8,0,4-.1,6.53-.31s5.21-.31,8-.31a29.25,29.25,0,0,1,10.36,1.76,15,15,0,0,1,10.15,15.23,19.85,19.85,0,0,1-2.08,9.42,19.1,19.1,0,0,1-5.43,6.48,24.06,24.06,0,0,1-7.41,3.78,27,27,0,0,1-8,1.24c-.89,0-1.77,0-2.64-.1a13.1,13.1,0,0,1-2.43-.42c-.28-.07-.36-.32-.26-.77s.26-.64.46-.57a17.45,17.45,0,0,0,1.92.31,17.14,17.14,0,0,0,1.81.1,20.31,20.31,0,0,0,8.6-1.86,15.22,15.22,0,0,0,6.53-5.75,17.83,17.83,0,0,0,2.49-9.79,19.38,19.38,0,0,0-2.23-9.64,15.35,15.35,0,0,0-6-6,16.78,16.78,0,0,0-8.29-2.07,34.77,34.77,0,0,0-5.74.36,3.62,3.62,0,0,0-2.8,1.91,12.8,12.8,0,0,0-.78,5.29Z"/><path class="cls-2" d="M839.08,293.34a8.79,8.79,0,0,0-4.24-1.14,6.94,6.94,0,0,0-3.42,1,19.48,19.48,0,0,0-4.2,3.52c-1.08,1.13-2.38,2.6-3.88,4.4v-.62a13.92,13.92,0,0,0-1.09-6.16c-.73-1.42-1.33-2.13-1.81-2.13a1.14,1.14,0,0,0-.52.11l-11.5,5.39q-.42.19-.15.72c.17.35.39.48.67.41,1.24-.48,2.35-.86,3.32-1.13a9.09,9.09,0,0,1,2.48-.42,3,3,0,0,1,2.9,1.61,11.83,11.83,0,0,1,.83,5.12v20.72c0,3-.42,4.9-1.24,5.8s-2.66,1.35-5.49,1.35c-.21,0-.31.21-.31.62s.1.62.31.62c1.17,0,2.57,0,4.19-.1s3.3-.11,5-.11q3.62,0,6.93.11c2.21.07,4.15.1,5.81.1.2,0,.31-.21.31-.62s-.11-.62-.31-.62a31.44,31.44,0,0,1-6.68-.52,4,4,0,0,1-3-2.07,11.25,11.25,0,0,1-.72-4.56V302.61c1.22-1.48,2.24-2.66,3-3.52a13.16,13.16,0,0,1,2.9-2.48,4.41,4.41,0,0,1,2-.57,5.07,5.07,0,0,1,2.8.67,22.64,22.64,0,0,1,1.92,1.4,3.22,3.22,0,0,0,2.12.72,2.91,2.91,0,0,0,2.23-.82,2.67,2.67,0,0,0,.77-1.87C841.15,295,840.46,294.1,839.08,293.34Z"/><path class="cls-2" d="M883.31,302.87a20.66,20.66,0,0,0-6.84-8,18.15,18.15,0,0,0-10.66-3.11,24.42,24.42,0,0,0-7.57,1.24,23.12,23.12,0,0,0-7.09,3.78,18.56,18.56,0,0,0-5.23,6.48,20.5,20.5,0,0,0-2,9.32,24.55,24.55,0,0,0,2.43,10.83,19.89,19.89,0,0,0,6.94,8,18.67,18.67,0,0,0,10.62,3,23,23,0,0,0,10.83-2.59,20.51,20.51,0,0,0,7.92-7.36,20.92,20.92,0,0,0,3-11.39A23.06,23.06,0,0,0,883.31,302.87Zm-7.15,25.85a12,12,0,0,1-9.32,3.88,13.59,13.59,0,0,1-8.91-3.16A20.61,20.61,0,0,1,852,321a30.17,30.17,0,0,1-2.12-11.39q0-7.67,3.31-11.76a11.2,11.2,0,0,1,9.22-4.09,14.75,14.75,0,0,1,9.06,2.9,19.16,19.16,0,0,1,6.06,7.87,27.93,27.93,0,0,1,2.18,11.29Q879.69,324.83,876.16,328.72Z"/><path class="cls-2" d="M933.14,300.49a16,16,0,0,0-5.75-6.47,14.45,14.45,0,0,0-7.82-2.23,19.26,19.26,0,0,0-9.84,2.85,38,38,0,0,0-8.09,6.68,18.13,18.13,0,0,0-1-6.68c-.65-1.55-1.46-2.33-2.43-2.33a1.91,1.91,0,0,0-.83.2l-10.67,5.08c-.27.14-.33.38-.15.73s.39.48.67.41a17.63,17.63,0,0,1,3.21-1.19,10.63,10.63,0,0,1,2.49-.36,3,3,0,0,1,3,1.71,13.24,13.24,0,0,1,.83,5.43v48.9q0,4.45-1.24,5.8t-5.49,1.34c-.21,0-.32.21-.32.63s.11.62.32.62c1.17,0,2.59,0,4.24-.11s3.35-.1,5.08-.1q3.63,0,6.94.1t6,.11c.14,0,.2-.21.2-.62s-.06-.63-.2-.63a30.49,30.49,0,0,1-6.79-.57,4.33,4.33,0,0,1-3.1-2.12,10.14,10.14,0,0,1-.78-4.45V331.1a19.41,19.41,0,0,0,4.5,2.33,21.77,21.77,0,0,0,7,1,20.54,20.54,0,0,0,7.1-1.4,25.12,25.12,0,0,0,7.25-4.25,21.39,21.39,0,0,0,5.65-7.3,24.12,24.12,0,0,0,2.17-10.67A22.54,22.54,0,0,0,933.14,300.49Zm-7.3,27q-3.8,4.86-9.28,4.87A17.1,17.1,0,0,1,907,330a28.67,28.67,0,0,1-5.38-4.61V303a48.6,48.6,0,0,1,5.8-5.13,13.7,13.7,0,0,1,8.39-2.69,12.23,12.23,0,0,1,9.79,4.82q4,4.82,4,14C929.62,319.79,928.35,324.28,925.84,327.53Z"/><path class="cls-2" d="M973.48,327.79c-.24-.31-.43-.4-.57-.26a42.38,42.38,0,0,1-4.5,2.43,14,14,0,0,1-6,1.09,14.53,14.53,0,0,1-8.8-2.64,16.23,16.23,0,0,1-5.49-7.25,27.4,27.4,0,0,1-1.87-10.41,30.36,30.36,0,0,1,.27-4.05l21.9-.1h3.83a1,1,0,0,0,1-.62,5.53,5.53,0,0,0,.26-2,12.34,12.34,0,0,0-2.9-8.59q-2.91-3.23-8.81-3.22a20.44,20.44,0,0,0-10.72,3,21.82,21.82,0,0,0-7.82,8,22.31,22.31,0,0,0-2.9,11.34,23,23,0,0,0,2.07,9.64,17.85,17.85,0,0,0,6.16,7.41,17.51,17.51,0,0,0,10.21,2.84,21.91,21.91,0,0,0,7.51-1.34,24.18,24.18,0,0,0,7.3-4.46C973.78,328.36,973.72,328.1,973.48,327.79Zm-15-33.51a8.59,8.59,0,0,1,6.88,3c1.49,1.72,2.19,4.34,2.11,7.84l-20.76.36a16.48,16.48,0,0,1,2.75-6.75A10.51,10.51,0,0,1,958.52,294.28Z"/><path class="cls-2" d="M1007.72,293.34a8.83,8.83,0,0,0-4.25-1.14,7,7,0,0,0-3.42,1,19.71,19.71,0,0,0-4.19,3.52c-1.09,1.13-2.38,2.6-3.89,4.4v-.62a13.94,13.94,0,0,0-1.08-6.16c-.73-1.42-1.33-2.13-1.82-2.13a1.17,1.17,0,0,0-.52.11l-11.49,5.39c-.28.13-.33.37-.16.72s.4.48.67.41c1.25-.48,2.35-.86,3.32-1.13a9.16,9.16,0,0,1,2.49-.42,3,3,0,0,1,2.9,1.61,11.85,11.85,0,0,1,.82,5.12v20.72q0,4.45-1.24,5.8t-5.49,1.35c-.21,0-.31.21-.31.62s.1.62.31.62c1.17,0,2.57,0,4.2-.1s3.29-.11,5-.11q3.63,0,6.94.11c2.21.07,4.14.1,5.8.1.21,0,.31-.21.31-.62s-.1-.62-.31-.62a31.51,31.51,0,0,1-6.68-.52,4,4,0,0,1-2.95-2.07,11.05,11.05,0,0,1-.73-4.56V302.61c1.23-1.48,2.25-2.66,3.06-3.52a12.93,12.93,0,0,1,2.9-2.48,4.41,4.41,0,0,1,2-.57,5.09,5.09,0,0,1,2.8.67,21,21,0,0,1,1.91,1.4,3.27,3.27,0,0,0,2.13.72A2.89,2.89,0,0,0,1009,298a2.68,2.68,0,0,0,.78-1.87C1009.79,295,1009.1,294.1,1007.72,293.34Z"/><path class="cls-2" d="M1042.42,328.62c-.21-.32-.45-.4-.72-.26a15.26,15.26,0,0,1-3.47,1.91,12.74,12.74,0,0,1-4.92.88q-4.15,0-6.27-2.12c-1.42-1.42-2.13-3.57-2.13-6.47v-26q3.46,0,6.58.24a44.16,44.16,0,0,1,7.72,1.3c.27.07.52-.19.72-.78a4.75,4.75,0,0,0,.31-1.6,5.9,5.9,0,0,0-.2-1.71c-.14-.45-.31-.68-.52-.68q-4.24.42-8,.73c-2.13.17-4.33.26-6.58.28v-7.53c0-.21-.25-.31-.77-.31s-.78.1-.78.31a7.05,7.05,0,0,1-2.43,5.49,9.23,9.23,0,0,1-6.38,2.17c-.2,0-.31.21-.31.62s.11.63.31.63a13.17,13.17,0,0,1,3.63.36,2.08,2.08,0,0,1,1.45,1.55,16.38,16.38,0,0,1,.31,3.78v24.66a8.07,8.07,0,0,0,1.35,4.92,7.33,7.33,0,0,0,3.57,2.59,14.46,14.46,0,0,0,4.72.77,16.23,16.23,0,0,0,6-1.14,32.79,32.79,0,0,0,6.74-3.83A.5.5,0,0,0,1042.42,328.62Z"/><path class="cls-2" d="M1086.65,293.14c.21,0,.31.2.31.62s-.1.62-.31.62a6.28,6.28,0,0,0-4.14,1.45c-1.18,1-2.28,2.87-3.32,5.7l-13,34.49a100.17,100.17,0,0,1-7.14,15.69q-3.42,5.76-7.1,8.14a15.06,15.06,0,0,1-8.34,2.38,6.46,6.46,0,0,1-3.47-.93,3.17,3.17,0,0,1-1.5-2.9,2.27,2.27,0,0,1,.88-1.92,3.1,3.1,0,0,1,1.92-.67,6.92,6.92,0,0,1,3.15.57c.73.37,1.42.77,2.08,1.19a4.91,4.91,0,0,0,2.64.62,7.07,7.07,0,0,0,5-2.38,30.7,30.7,0,0,0,5.13-8.08,139.31,139.31,0,0,0,6.19-13.73l-15.77-32.27a29.06,29.06,0,0,0-3.58-6,4.26,4.26,0,0,0-3.26-1.4c-.14,0-.21-.21-.21-.62s.07-.62.21-.62c1,0,2.11,0,3.21.1s2.18.1,3.21.1c2.21,0,4.16,0,5.86-.1s3.22-.1,4.61-.1c.13,0,.2.2.2.62s-.07.62-.2.62a13.13,13.13,0,0,0-5.13.83q-1.92.82-.68,3.21L1068.65,326l8.37-24.06c1-3,1-5.06-.11-6.06s-3.59-1.5-7.46-1.5c-.13,0-.2-.21-.2-.62s.07-.62.2-.62c1.66,0,3.23,0,4.72.1s3.4.1,5.75.1c1.45,0,2.62,0,3.52-.1S1085.41,293.14,1086.65,293.14Z"/><path class="cls-1" d="M1147.8,266.29a66.38,66.38,0,0,1,7.92.41,30.65,30.65,0,0,1,6.19,1.38,44.05,44.05,0,0,1,6,2.6,2.53,2.53,0,0,1,.76.67,5,5,0,0,1,.26,1.58l1.23,11.65q0,.21-.57.36c-.37.1-.59,0-.66-.26q-2.25-8.48-7.41-12.72t-13.75-4.24A31.89,31.89,0,0,0,1132,271.5a26.29,26.29,0,0,0-10.48,10.73,34.19,34.19,0,0,0-3.73,16.35,33.36,33.36,0,0,0,9,23,31.85,31.85,0,0,0,9.66,7.05,26.64,26.64,0,0,0,11.55,2.56q8.79,0,14.1-4.24t7.56-12.42c.07-.21.29-.27.67-.21s.56.18.56.31l-.82,10.84a4.05,4.05,0,0,1-.3,1.53,3.28,3.28,0,0,1-.82.72,40.66,40.66,0,0,1-10.07,3.88,51.8,51.8,0,0,1-11,1,41.11,41.11,0,0,1-19-4.24,32.06,32.06,0,0,1-13-11.91,33.36,33.36,0,0,1-4.7-17.78,31.54,31.54,0,0,1,2.71-13.29,29.58,29.58,0,0,1,7.67-10.22,34.91,34.91,0,0,1,11.6-6.59A44.2,44.2,0,0,1,1147.8,266.29Z"/><path class="cls-1" d="M1215,301.45a20.44,20.44,0,0,0-6.74-7.87,17.9,17.9,0,0,0-10.53-3.07,24,24,0,0,0-7.46,1.23,22.54,22.54,0,0,0-7,3.73,18.31,18.31,0,0,0-5.16,6.38,20.32,20.32,0,0,0-2,9.2,24.1,24.1,0,0,0,2.41,10.69,19.65,19.65,0,0,0,6.84,7.92,18.51,18.51,0,0,0,10.48,3,22.63,22.63,0,0,0,10.68-2.55,20.42,20.42,0,0,0,7.82-7.26,20.7,20.7,0,0,0,3-11.24A22.67,22.67,0,0,0,1215,301.45Zm-7,25.5a11.84,11.84,0,0,1-9.2,3.83,13.4,13.4,0,0,1-8.79-3.12,20.35,20.35,0,0,1-5.88-8.33,30,30,0,0,1-2.09-11.24q0-7.56,3.27-11.6a11.06,11.06,0,0,1,9.1-4,14.6,14.6,0,0,1,8.94,2.86,19,19,0,0,1,6,7.77,27.57,27.57,0,0,1,2.14,11.14Q1211.37,323.11,1207.9,327Z"/><path class="cls-1" d="M1267.28,330.07c-2.86,0-4.68-.45-5.46-1.33s-1.18-2.8-1.18-5.73V302.88c0-4.23-1-7.34-3.07-9.36s-4.94-3-8.68-3a16.59,16.59,0,0,0-8.9,2.76,31.62,31.62,0,0,0-6.84,6.18v-.35a13.66,13.66,0,0,0-1.08-6.09c-.71-1.39-1.31-2.09-1.78-2.09a1.15,1.15,0,0,0-.52.1l-11.34,5.32c-.28.13-.33.37-.15.71s.39.48.66.41c1.23-.48,2.32-.85,3.27-1.12a8.85,8.85,0,0,1,2.45-.41,3,3,0,0,1,2.87,1.58,11.75,11.75,0,0,1,.81,5.06V323q0,4.39-1.22,5.73c-.82.88-2.63,1.33-5.42,1.33-.21,0-.31.2-.31.61s.1.61.31.61c1.16,0,2.54,0,4.14-.1s3.25-.1,5-.1,3.33,0,4.9.1,2.93.1,4.09.1c.2,0,.31-.2.31-.61s-.11-.61-.31-.61c-2.86,0-4.69-.45-5.47-1.33s-1.17-2.8-1.17-5.73V301a22.13,22.13,0,0,1,5.06-4.46,14.81,14.81,0,0,1,7.92-2.56c3.33,0,5.79,1,7.36,2.87s2.35,4.94,2.35,9.09V323q0,4.39-1.23,5.73c-.82.88-2.62,1.33-5.42,1.33-.2,0-.3.2-.3.61s.1.61.3.61c1.16,0,2.54,0,4.14-.1s3.26-.1,5-.1,3.34,0,4.9.1,2.93.1,4.09.1c.21,0,.31-.2.31-.61S1267.49,330.07,1267.28,330.07Z"/><path class="cls-1" d="M1275.36,298.38a7.67,7.67,0,0,0,1.38,4.65,11.54,11.54,0,0,0,3.57,3.17c1.47.85,3,1.69,4.55,2.5a44.24,44.24,0,0,1,5,2.71,14.36,14.36,0,0,1,3.88,3.53,8.56,8.56,0,0,1,1.54,5.31,11.62,11.62,0,0,1-1.64,6,11.86,11.86,0,0,1-4.85,4.45,16.76,16.76,0,0,1-7.82,1.69,17.73,17.73,0,0,1-4.81-.67,15,15,0,0,1-4.8-2.5,3.79,3.79,0,0,1-.41-.51,1.26,1.26,0,0,1-.2-.72l-.21-7.36q0-.3.57-.36c.37,0,.59.06.66.26a20.12,20.12,0,0,0,3.12,5.67,11.16,11.16,0,0,0,4,3.22,12,12,0,0,0,5,1,8,8,0,0,0,5.47-1.68,5.94,5.94,0,0,0,1.69-5.06,8.07,8.07,0,0,0-1.54-4.81,12.07,12.07,0,0,0-3.57-3.06q-2.15-1.23-4.5-2.35-2.55-1.23-4.86-2.61a12.05,12.05,0,0,1-3.78-3.53,9.49,9.49,0,0,1-1.48-5.52,9.73,9.73,0,0,1,2.05-6.38,12.29,12.29,0,0,1,5.16-3.73,17.53,17.53,0,0,1,6.49-1.23,19.2,19.2,0,0,1,3.68.36,15.54,15.54,0,0,1,3.57,1.17c.62.28.92.65.92,1.13,0,1,0,2.11-.1,3.27s-.1,2.42-.1,3.78c0,.14-.21.2-.62.2s-.61-.06-.61-.2a5.69,5.69,0,0,0-1.68-4.09,11.45,11.45,0,0,0-4.09-2.66,13.31,13.31,0,0,0-4.76-.92,6.27,6.27,0,0,0-4.34,1.43A5.65,5.65,0,0,0,1275.36,298.38Z"/><path class="cls-1" d="M1346,326c-.13-.38-.37-.5-.71-.36-1.3.48-2.39.85-3.27,1.13a8.51,8.51,0,0,1-2.46.4,3,3,0,0,1-2.91-1.58,11,11,0,0,1-.87-5.06V291.63a.61.61,0,0,0-.3-.51,1.08,1.08,0,0,0-.51-.2.72.72,0,0,0-.31.1l-10.73,4.8c-.28.08-.34.31-.21.72s.34.55.62.41a8.86,8.86,0,0,1,3.68-1,2.42,2.42,0,0,1,2.4,1.79,19,19,0,0,1,.66,6v17.73a23.76,23.76,0,0,1-5.52,4.61,16.2,16.2,0,0,1-8.38,2.5,7.49,7.49,0,0,1-6.44-2.91q-2.15-2.91-2.15-9.15V291.63a.61.61,0,0,0-.3-.51,1.08,1.08,0,0,0-.51-.2.86.86,0,0,0-.41.1l-10.73,4.8c-.28.08-.33.31-.16.72s.4.55.67.41a8.86,8.86,0,0,1,3.68-1,2.33,2.33,0,0,1,2.35,1.79,20.37,20.37,0,0,1,.61,6v15.85q0,6.22,2.86,9.35a10,10,0,0,0,7.77,3.12,18.36,18.36,0,0,0,9.4-2.71,32,32,0,0,0,7.26-6.25v1a13.8,13.8,0,0,0,1.07,6.08c.72,1.39,1.31,2.09,1.79,2.09a.88.88,0,0,0,.41-.1l11.45-5.31C1346.05,326.66,1346.12,326.4,1346,326Z"/><path class="cls-1" d="M1346.19,331.29c-.21,0-.31-.2-.31-.61s.1-.61.31-.61c2.79,0,4.6-.45,5.41-1.33s1.23-2.8,1.23-5.73V270a14.94,14.94,0,0,0-.71-5.37,2.57,2.57,0,0,0-2.56-1.68,13.18,13.18,0,0,0-4.91,1.53c-.27.14-.49,0-.66-.41s-.12-.65.15-.72l12.57-6a1.3,1.3,0,0,1,.52-.1.8.8,0,0,1,.46.21.63.63,0,0,1,.25.51V323q0,4.31,1.18,5.68t5.46,1.38c.21,0,.31.2.31.61s-.1.61-.31.61c-1.16,0-2.53,0-4.13-.1s-3.29-.1-5.06-.1-3.38,0-5,.1S1347.34,331.29,1346.19,331.29Z"/><path class="cls-1" d="M1396.07,326.85c-.21-.31-.45-.4-.72-.26a15.43,15.43,0,0,1-3.42,1.89,12.62,12.62,0,0,1-4.86.87q-4.1,0-6.18-2.09t-2.1-6.39V295.22c2.27,0,4.44.1,6.49.25a43,43,0,0,1,7.62,1.27c.27.08.51-.18.71-.76a4.69,4.69,0,0,0,.31-1.59,5.64,5.64,0,0,0-.21-1.68c-.13-.44-.3-.67-.51-.67-2.79.28-5.43.51-7.92.72-2.1.17-4.27.25-6.49.28V285.6c0-.2-.25-.3-.77-.3s-.76.1-.76.3a7,7,0,0,1-2.4,5.42,9.09,9.09,0,0,1-6.29,2.15c-.2,0-.31.2-.31.61s.11.61.31.61a13.2,13.2,0,0,1,3.58.36,2.06,2.06,0,0,1,1.43,1.53,16.51,16.51,0,0,1,.31,3.73v24.33a8,8,0,0,0,1.32,4.86,7.26,7.26,0,0,0,3.53,2.55,14.09,14.09,0,0,0,4.65.77,16.06,16.06,0,0,0,5.93-1.13,32.57,32.57,0,0,0,6.64-3.78A.49.49,0,0,0,1396.07,326.85Z"/><path class="cls-1" d="M1400.46,331.29c-.14,0-.21-.2-.21-.61s.07-.61.21-.61c2.79,0,4.61-.45,5.47-1.33s1.27-2.8,1.27-5.73V303.69a14.66,14.66,0,0,0-.71-5.36,2.64,2.64,0,0,0-2.66-1.69,7.22,7.22,0,0,0-2.09.36,18.11,18.11,0,0,0-2.81,1.18c-.28.07-.5-.09-.67-.46s-.12-.63.15-.77l12.68-5.93a1.5,1.5,0,0,1,.41-.1.82.82,0,0,1,.46.2.63.63,0,0,1,.25.51c0,.48,0,1.79-.1,3.94s-.1,4.82-.1,8V323q0,4.39,1.17,5.73c.79.88,2.61,1.33,5.47,1.33.21,0,.31.2.31.61s-.1.61-.31.61c-1.16,0-2.52,0-4.09-.1s-3.23-.1-5-.1-3.34,0-4.91.1S1401.69,331.29,1400.46,331.29Z"/><path class="cls-1" d="M1408.74,278.55a4.21,4.21,0,0,1-3-1,4.36,4.36,0,0,1,0-5.72,4.22,4.22,0,0,1,3-1,3.56,3.56,0,0,1,3.88,3.89Q1412.62,278.55,1408.74,278.55Z"/><path class="cls-1" d="M1468.94,330.07c-2.87,0-4.69-.45-5.47-1.33s-1.18-2.8-1.18-5.73V302.88c0-4.23-1-7.34-3.06-9.36s-4.94-3-8.69-3a16.55,16.55,0,0,0-8.89,2.76,31.42,31.42,0,0,0-6.85,6.18v-.35a13.66,13.66,0,0,0-1.08-6.09c-.71-1.39-1.31-2.09-1.78-2.09a1.08,1.08,0,0,0-.51.1l-11.35,5.32c-.27.13-.32.37-.15.71s.39.48.66.41c1.23-.48,2.32-.85,3.27-1.12a8.91,8.91,0,0,1,2.46-.41,3,3,0,0,1,2.86,1.58,11.75,11.75,0,0,1,.81,5.06V323c0,2.93-.4,4.84-1.22,5.73s-2.62,1.33-5.42,1.33c-.2,0-.31.2-.31.61s.11.61.31.61c1.16,0,2.54,0,4.14-.1s3.25-.1,5-.1,3.33,0,4.9.1,2.93.1,4.09.1c.21,0,.31-.2.31-.61s-.1-.61-.31-.61c-2.86,0-4.68-.45-5.47-1.33s-1.17-2.8-1.17-5.73V301a22.34,22.34,0,0,1,5.06-4.46,14.81,14.81,0,0,1,7.92-2.56q5,0,7.36,2.87c1.56,1.91,2.35,4.94,2.35,9.09V323q0,4.39-1.23,5.73c-.82.88-2.62,1.33-5.42,1.33-.2,0-.3.2-.3.61s.1.61.3.61c1.16,0,2.54,0,4.14-.1s3.26-.1,5-.1,3.34,0,4.91.1,2.93.1,4.09.1c.2,0,.3-.2.3-.61S1469.14,330.07,1468.94,330.07Z"/><path class="cls-1" d="M1503.59,294.9a13.56,13.56,0,0,1,4.19.57c1.15.37,2,.66,2.45.87.27.13.49-.19.66-1a10.34,10.34,0,0,0,.26-2.19,7,7,0,0,0-.15-1.43q-.16-.72-.36-.72a17.42,17.42,0,0,0-6.54,1.18,43.22,43.22,0,0,0-4.37,2,14.43,14.43,0,0,0-1.51-1.06,17,17,0,0,0-8.94-2.05,18.68,18.68,0,0,0-8.59,1.84,13.68,13.68,0,0,0-5.47,4.86,12.34,12.34,0,0,0-1.89,6.69,12.49,12.49,0,0,0,1.84,6.6,13.07,13.07,0,0,0,5.27,4.8h0a62.51,62.51,0,0,0-5.18,5,8.5,8.5,0,0,0-2.14,5.88,5.51,5.51,0,0,0,2.25,4.9,12.65,12.65,0,0,0,5.91,1.87,43,43,0,0,0-6.17,5.23q-4.44,4.65-4.44,10a10,10,0,0,0,3.83,7.92q3.83,3.22,11,3.22a28.38,28.38,0,0,0,9.35-1.58,28,28,0,0,0,8.12-4.4,22.2,22.2,0,0,0,5.68-6.49,15.72,15.72,0,0,0,2.09-7.87c0-2.73-.63-4.8-1.89-6.23a9.84,9.84,0,0,0-4.75-3,24.53,24.53,0,0,0-5.83-.92c-2-.06-3.71-.1-5.21-.1a60.34,60.34,0,0,1-9.3-.56A9.63,9.63,0,0,1,1479,327a4.17,4.17,0,0,1-1.38-3.27,6.73,6.73,0,0,1,1-3.53,16.37,16.37,0,0,1,3.33-3.62,19.14,19.14,0,0,0,6.79,1.12,17.42,17.42,0,0,0,8.58-1.94,13.61,13.61,0,0,0,5.26-5,12.54,12.54,0,0,0,1.79-6.44,14.07,14.07,0,0,0-1.43-6,10.78,10.78,0,0,0-2.18-3.09l.34-.08A14.37,14.37,0,0,1,1503.59,294.9Zm-5,39.51a10.49,10.49,0,0,1,5.77,2.3c1.4,1.23,2.1,3.23,2.1,6a12.37,12.37,0,0,1-4.86,10.32q-4.85,3.78-12.31,3.78a18.34,18.34,0,0,1-7.62-1.38,9.68,9.68,0,0,1-4.49-3.88,11.12,11.12,0,0,1-1.49-5.77,11.66,11.66,0,0,1,1.74-6.6,16,16,0,0,1,4.6-4.49c.49-.33,1-.65,1.52-1q3,.19,6.45.2A69.64,69.64,0,0,1,1498.58,334.41Zm-2-20.44a8.15,8.15,0,0,1-5.93,2.3,11.55,11.55,0,0,1-10-6,15.62,15.62,0,0,1-1.84-8q0-5.31,2.35-7.51a8.36,8.36,0,0,1,5.93-2.2,11,11,0,0,1,6,1.69,12,12,0,0,1,4.24,4.75,15.83,15.83,0,0,1,1.58,7.36C1498.88,309.9,1498.1,312.43,1496.53,314Z"/><path class="cls-2" d="M203.74,430l-.92-.32c-18.74-6.58-51-25.17-77.73-50.44-24.32-23-53.31-60.48-53.31-108V118.69h2.76c62.74,0,126.91-47,127.56-47.45L203.74,70l1.64,1.22c.64.47,64.86,47.45,127.56,47.45h2.76V271.2c0,47.56-29,85-53.32,108-26.67,25.27-59,43.86-77.73,50.44ZM77.29,124.17v147c0,82.09,91.71,140.3,126.45,153,34.73-12.65,126.44-70.86,126.44-152.95v-147C271.5,123,214.29,84.34,203.74,76.85,193.18,84.34,136,123,77.29,124.17Z"/><path class="cls-2" d="M214.78,280.23a34.48,34.48,0,0,0,3.31-4.31h19.73q9.62,0,13.73-3.4t4.1-11c0-.27.4-.41,1.21-.41s1.2.14,1.2.41c0,4.11,0,7.3-.1,9.56s-.1,4.63-.1,7.1c0,3.15.06,6.24.2,9.25s.2,6.24.2,9.67c0,.27-.4.41-1.2.41s-1.2-.14-1.2-.41q0-9-4.31-13t-14.33-3.91Zm-5.65-53a15.15,15.15,0,0,1,1.15-4.82,7.26,7.26,0,0,1,4.92-3.82,41.77,41.77,0,0,1,10.57-1h12.51q9.63,0,15.69,5.84t6.67,16.71c0,.41.37.58,1.12.51s1.13-.31,1.13-.71l-.41-24.76a1.62,1.62,0,0,0-1.84-1.82H189.08c4.46,2.59,8.84,5.28,13.06,8.16A51.76,51.76,0,0,1,209.13,227.24Zm55,91.73c-.82-.13-1.22,0-1.22.41q-2,12-8.67,19a21.7,21.7,0,0,1-16.43,7H221.46a37.33,37.33,0,0,1-10.1-1,7.19,7.19,0,0,1-4.7-3.86,19.74,19.74,0,0,1-1.32-8.13V289c-4.06,2.68-9.18,5.38-13.06,6.12v38.09c0,3.93-.45,6.91-1.33,8.94a7.15,7.15,0,0,1-5,4.06,45.34,45.34,0,0,1-11.22,1c-.27,0-.41.41-.41,1.22s.14,1.22.41,1.22h85.49q3.27,0,3.27-3,0-6.5.51-14t1.33-12.8C265.33,319.38,264.92,319.11,264.1,319Zm-66.91-72.33a46.93,46.93,0,0,0-5.15-6.23V284.9c3.46-1.82,4.37-2.6,6.07-4.95a15.56,15.56,0,0,0,1.14-1.95h0a17.79,17.79,0,0,0,1-2.06h0a29.57,29.57,0,0,0,1.93-11.13Q202.16,253.88,197.19,246.64Zm17.57-8.78a47,47,0,0,0-5.71-6.91,51,51,0,0,0-6.93-5.81c-4.19-2.93-8.54-5.67-13-8.3-1-.57-1.91-1.18-2.9-1.74q-8-4.9-15.08-9.82a45,45,0,0,1-11.65-11.49A26.93,26.93,0,0,1,155,178.06a29.36,29.36,0,0,1,2.55-12.16,22.08,22.08,0,0,1,8-9.38q5.43-3.68,14.09-3.68a28.94,28.94,0,0,1,14,3.13,29.77,29.77,0,0,1,9.54,8,39.26,39.26,0,0,1,5.77,10.37,42.05,42.05,0,0,1,2.44,9.93,1.39,1.39,0,0,0,1.55.78c.74-.07,1.11-.4,1.11-1l-1.56-25.44a3.46,3.46,0,0,0-.77-2.12,5.72,5.72,0,0,0-2.55-1.67A57.26,57.26,0,0,0,196,150.72a71.75,71.75,0,0,0-12.87-1.23,53,53,0,0,0-19.75,3.8,36.2,36.2,0,0,0-15.53,11.49q-6,7.69-6,19.52,0,10.5,4.55,17.52A44.51,44.51,0,0,0,158.19,214q7.2,5.15,15,10a165.43,165.43,0,0,1,15.53,10,50.25,50.25,0,0,1,7.15,6.36,47.93,47.93,0,0,1,4.95,6.24q4.77,7.26,4.77,18.19A30.83,30.83,0,0,1,203.71,276a20.63,20.63,0,0,1-.94,2.07,16.68,16.68,0,0,1-1.1,1.95,22.15,22.15,0,0,1-5.83,5.76,21.63,21.63,0,0,1-4.15,2.28,33.25,33.25,0,0,1-12.54,2.45A32.4,32.4,0,0,1,163.62,287a36.29,36.29,0,0,1-11.31-9.37,52.32,52.32,0,0,1-7.55-12.72,85.48,85.48,0,0,1-4.43-13.61c-.15-.59-.63-.86-1.45-.78s-1.14.48-1,1.22L140.77,282a15.66,15.66,0,0,0,.55,2.57,3.09,3.09,0,0,0,1.45,1.67,71.68,71.68,0,0,0,10.31,4.46,59.24,59.24,0,0,0,10.43,2.57,71.09,71.09,0,0,0,10.54.78,57.73,57.73,0,0,0,21.79-3.8c1.07-.43,2.17-.82,3.17-1.33a40.77,40.77,0,0,0,9.86-7c.57-.54,1.11-1.1,1.63-1.67a33.92,33.92,0,0,0,3.37-4.3c.18-.27.39-.5.56-.77a35.91,35.91,0,0,0,5.33-19.31Q219.76,245.22,214.76,237.86Z"/><rect class="cls-3" x="397.59" y="405.2" width="910" height="3"/><path class="cls-1" d="M408,503.39V476.11H397.48v-1.92h23.15v1.92H410.12v27.28Z"/><path class="cls-1" d="M433,503.39v-29.2h10.47q5.51,0,8.63,2.58a8.9,8.9,0,0,1,3.13,7.26,9.48,9.48,0,0,1-1.42,5.24,9.12,9.12,0,0,1-4,3.37,15.14,15.14,0,0,1-6.3,1.19h-9.3l1-1v10.56ZM435.11,493l-1-1h9.3q4.71,0,7.15-2.09a8.23,8.23,0,0,0,0-11.7q-2.44-2.06-7.15-2.06h-9.3l1-1.05Zm18.14,10.43-7.59-10.6h2.42l7.59,10.6Z"/><path class="cls-1" d="M481.53,503.59c-3.61,0-6.47-1-8.55-3.16s-3.13-5.26-3.13-9.43V474.19H472v16.72c0,3.65.83,6.34,2.5,8.1a10.85,10.85,0,0,0,14.14,0c1.67-1.76,2.5-4.45,2.5-8.1V474.19h2.13V491q0,6.25-3.13,9.43T481.53,503.59Z"/><path class="cls-1" d="M517.94,503.59a17.12,17.12,0,0,1-6.16-1.1,11.44,11.44,0,0,1-4.48-2.86l1-1.58a12.05,12.05,0,0,0,4.11,2.6,14.47,14.47,0,0,0,5.52,1.07,12.68,12.68,0,0,0,4.78-.77,6.11,6.11,0,0,0,2.75-2.07,4.92,4.92,0,0,0,.9-2.88,4.33,4.33,0,0,0-1-3,7,7,0,0,0-2.63-1.79,22.61,22.61,0,0,0-3.54-1.13c-1.29-.31-2.57-.63-3.88-1a17.72,17.72,0,0,1-3.59-1.36,6.78,6.78,0,0,1-2.61-2.27,6.52,6.52,0,0,1-1-3.73,7.11,7.11,0,0,1,1.09-3.84,7.71,7.71,0,0,1,3.38-2.84,13.82,13.82,0,0,1,5.88-1.08,16.56,16.56,0,0,1,4.77.71,13.34,13.34,0,0,1,4,1.92l-.8,1.71a13.81,13.81,0,0,0-3.94-1.86,14.79,14.79,0,0,0-4.06-.6,11.7,11.7,0,0,0-4.63.79,5.92,5.92,0,0,0-2.71,2.11,5.11,5.11,0,0,0-.88,2.94,4.42,4.42,0,0,0,1,3,6.77,6.77,0,0,0,2.61,1.79,23.53,23.53,0,0,0,3.58,1.13c1.31.3,2.61.63,3.88,1a18.93,18.93,0,0,1,3.55,1.35,7.22,7.22,0,0,1,2.63,2.26,6.27,6.27,0,0,1,1,3.67,7,7,0,0,1-1.13,3.81,7.74,7.74,0,0,1-3.44,2.84A14.29,14.29,0,0,1,517.94,503.59Z"/><path class="cls-1" d="M547.92,503.39V476.11H537.41v-1.92h23.15v1.92H550.05v27.28Z"/><path class="cls-1" d="M676.65,503V474h11.47a16.88,16.88,0,0,1,8.08,1.86,13.61,13.61,0,0,1,5.41,5.14,15.54,15.54,0,0,1,0,15,13.67,13.67,0,0,1-5.41,5.14,16.88,16.88,0,0,1-8.08,1.86Zm2-2h9.13a14.79,14.79,0,0,0,7.07-1.6,11.57,11.57,0,0,0,4.64-4.42,13.55,13.55,0,0,0,0-13,11.5,11.5,0,0,0-4.64-4.42,14.79,14.79,0,0,0-7.07-1.6h-9.13Z"/><path class="cls-1" d="M717.65,503V474h2v29Z"/><path class="cls-1" d="M745,503.59a17.12,17.12,0,0,1-6.16-1.1,11.44,11.44,0,0,1-4.48-2.86l1-1.58a12.05,12.05,0,0,0,4.11,2.6,14.47,14.47,0,0,0,5.52,1.07,12.68,12.68,0,0,0,4.78-.77,6.11,6.11,0,0,0,2.75-2.07,4.92,4.92,0,0,0,.9-2.88,4.33,4.33,0,0,0-1-3,7,7,0,0,0-2.63-1.79,22.61,22.61,0,0,0-3.54-1.13c-1.29-.31-2.57-.63-3.88-1a17.72,17.72,0,0,1-3.59-1.36,6.78,6.78,0,0,1-2.61-2.27,6.52,6.52,0,0,1-1-3.73,7.11,7.11,0,0,1,1.09-3.84,7.71,7.71,0,0,1,3.38-2.84,13.82,13.82,0,0,1,5.88-1.08,16.56,16.56,0,0,1,4.77.71,13.34,13.34,0,0,1,4,1.92l-.8,1.71a13.81,13.81,0,0,0-3.94-1.86,14.79,14.79,0,0,0-4.06-.6,11.7,11.7,0,0,0-4.63.79,5.92,5.92,0,0,0-2.71,2.11,5.11,5.11,0,0,0-.88,2.94,4.42,4.42,0,0,0,1,3,6.7,6.7,0,0,0,2.61,1.79,23.53,23.53,0,0,0,3.58,1.13c1.31.3,2.6.63,3.88,1a18.93,18.93,0,0,1,3.55,1.35,7.22,7.22,0,0,1,2.63,2.26,6.27,6.27,0,0,1,1,3.67,7,7,0,0,1-1.13,3.81,7.74,7.74,0,0,1-3.44,2.84A14.29,14.29,0,0,1,745,503.59Z"/><path class="cls-1" d="M782.19,503.59a16.07,16.07,0,0,1-6-1.1,14.39,14.39,0,0,1-4.82-3.11,14.14,14.14,0,0,1-3.17-4.69,16.13,16.13,0,0,1,0-11.81,14.15,14.15,0,0,1,3.19-4.69,14.67,14.67,0,0,1,4.82-3.1,15.9,15.9,0,0,1,6-1.11,16.37,16.37,0,0,1,5.78,1,12,12,0,0,1,4.61,3l-1.33,1.37a11.52,11.52,0,0,0-4.15-2.64,14,14,0,0,0-4.82-.82,13.81,13.81,0,0,0-5.19,1,12.44,12.44,0,0,0-6.93,6.8,13.71,13.71,0,0,0,0,10.18,12.46,12.46,0,0,0,6.93,6.79,13.81,13.81,0,0,0,5.19,1,14.26,14.26,0,0,0,4.82-.81,11.27,11.27,0,0,0,4.15-2.69l1.33,1.38a12.11,12.11,0,0,1-4.61,3.06A16.15,16.15,0,0,1,782.19,503.59Z"/><path class="cls-1" d="M806.65,504V474h10.66q5.61,0,8.79,2.63a9.07,9.07,0,0,1,3.18,7.39,9.61,9.61,0,0,1-1.44,5.33,9.36,9.36,0,0,1-4.12,3.44,15.44,15.44,0,0,1-6.41,1.21h-9.56l.9-1.05V504Zm2-11-1-1h9.39q4.75,0,7.22-2.11a8.32,8.32,0,0,0,0-11.81q-2.46-2.08-7.22-2.08h-9.39l1-1.06Zm18.1,11-7.88-11h2.52l7.88,11Z"/><path class="cls-1" d="M843.65,503V474h20v2h-18v25h18v2Zm2-13v-2h16v2Z"/><path class="cls-1" d="M884.65,503V476h-11v-2h23v2h-10v27Z"/><path class="cls-1" d="M908.65,503V474h2v29Z"/><path class="cls-1" d="M940.86,503.59a16.08,16.08,0,0,1-6-1.1,14.57,14.57,0,0,1-4.84-3.13,14.18,14.18,0,0,1-3.19-4.71,15.89,15.89,0,0,1,0-11.72,14.12,14.12,0,0,1,3.19-4.72,14.55,14.55,0,0,1,4.84-3.12,16.91,16.91,0,0,1,12,0,14.28,14.28,0,0,1,8,7.79,15.74,15.74,0,0,1,0,11.81,14.34,14.34,0,0,1-8,7.8A16,16,0,0,1,940.86,503.59Zm0-2a13.7,13.7,0,0,0,5.17-1,12.3,12.3,0,0,0,4.13-2.71,12.66,12.66,0,0,0,2.73-4.08,13.76,13.76,0,0,0,0-10.2,12.72,12.72,0,0,0-2.73-4.07A12.3,12.3,0,0,0,946,476.9a14.43,14.43,0,0,0-10.35,0,12.59,12.59,0,0,0-4.15,2.71,12.46,12.46,0,0,0-2.75,4.07,13.76,13.76,0,0,0,0,10.2,12.4,12.4,0,0,0,2.75,4.08,12.59,12.59,0,0,0,4.15,2.71A13.72,13.72,0,0,0,940.86,501.63Z"/><path class="cls-1" d="M970.65,504V474h1.82l21.16,27h-1V474h2v30h-3.29l-19.61-27h.9v27Z"/><path class="cls-1" d="M1109.76,503.39v-29.2h2.12v27.28h16.81v1.92Z"/><path class="cls-1" d="M1141.25,503.39v-29.2h19.51v1.92h-17.39v25.36h18v1.92Zm1.87-13.89v-1.88h15.81v1.88Z"/><path class="cls-1" d="M1188.5,503.59a16.33,16.33,0,0,1-6.09-1.1,14.46,14.46,0,0,1-4.86-3.11,13.9,13.9,0,0,1-3.19-4.69,16,16,0,0,1,0-11.81,13.91,13.91,0,0,1,3.21-4.69,14.85,14.85,0,0,1,4.86-3.1,16.28,16.28,0,0,1,6.11-1.11,16.81,16.81,0,0,1,5.88,1,12.2,12.2,0,0,1,4.63,3l-1.33,1.42a11.34,11.34,0,0,0-4.2-2.67,15.09,15.09,0,0,0-4.94-.79,14.18,14.18,0,0,0-5.26,1,12.64,12.64,0,0,0-4.21,2.71,12.34,12.34,0,0,0-2.77,4.09,13.71,13.71,0,0,0,0,10.18,12.3,12.3,0,0,0,2.77,4.08,12.64,12.64,0,0,0,4.21,2.71,14.18,14.18,0,0,0,5.26,1,15,15,0,0,0,4.9-.79,11.47,11.47,0,0,0,4.24-2.63l1.21,1.63a12.76,12.76,0,0,1-4.7,2.82A17.65,17.65,0,0,1,1188.5,503.59Zm10.43-3.75-2-.25V488.91h2Z"/><path class="cls-1" d="M1210.47,503.39l13.44-29.2H1226l13.43,29.2h-2.29l-12.68-27.87h.92l-12.64,27.87Zm4.93-8.22.7-1.8h17.48l.71,1.8Z"/><path class="cls-1" d="M1263.78,503.59a16.08,16.08,0,0,1-6-1.1,14.49,14.49,0,0,1-4.82-3.11,14.14,14.14,0,0,1-3.17-4.69,16.13,16.13,0,0,1,0-11.81,14.15,14.15,0,0,1,3.19-4.69,14.67,14.67,0,0,1,4.82-3.1,16,16,0,0,1,6-1.11,16.35,16.35,0,0,1,5.77,1,12,12,0,0,1,4.61,3l-1.33,1.37a11.52,11.52,0,0,0-4.15-2.64,14,14,0,0,0-4.82-.82,13.85,13.85,0,0,0-5.19,1,12.38,12.38,0,0,0-6.92,6.8,13.71,13.71,0,0,0,0,10.18,12.41,12.41,0,0,0,6.92,6.79,13.85,13.85,0,0,0,5.19,1,14.26,14.26,0,0,0,4.82-.81,11.27,11.27,0,0,0,4.15-2.69l1.33,1.38a12.11,12.11,0,0,1-4.61,3.06A16.14,16.14,0,0,1,1263.78,503.59Z"/><path class="cls-1" d="M1294,503.39v-10.6l.5,1.38-12.27-20h2.34l11.14,18.14h-1.17l11.13-18.14h2.22l-12.27,20,.5-1.38v10.6Z"/><circle class="cls-2" cx="1052.65" cy="488.99" r="9"/><circle class="cls-2" cx="615.65" cy="488.99" r="9"/></g></svg>