<svg id="Слой_1" data-name="Слой 1" xmlns="http://www.w3.org/2000/svg" viewBox="0 0 500 500"><defs><style>.cls-1{fill:#242e24;}</style></defs><path id="mark_b" class="cls-1" d="M250,473l-1.14-.4c-23.43-8.23-63.84-31.47-97.2-63.05C121.25,380.75,85,333.94,85,274.49V83.84h3.45c78.45,0,158.69-58.73,159.5-59.32L250,23l2.05,1.52c.8.59,81.1,59.32,159.5,59.32H415V274.49c0,59.45-36.25,106.26-66.66,135.06-33.36,31.58-73.77,54.82-97.2,63.05ZM91.89,90.69v183.8c0,102.62,114.68,175.38,158.11,191.2,43.43-15.82,158.11-88.59,158.11-191.2V90.69C334.73,89.21,263.19,40.9,250,31.53,236.8,40.9,165.27,89.21,91.89,90.69ZM264,285.74a43.39,43.39,0,0,0,4.12-5.34h24.49q12,0,17.05-4.2t5.1-13.6c0-.33.5-.51,1.5-.51s1.49.18,1.49.51q0,7.63-.13,11.83c-.08,2.79-.12,5.72-.12,8.76,0,3.91.08,7.72.25,11.45s.25,7.71.25,11.95c0,.34-.5.5-1.5.5s-1.49-.16-1.49-.5q0-11.19-5.35-16t-17.79-4.83Zm-7.19-66.19a18.8,18.8,0,0,1,1.43-6,9,9,0,0,1,6.13-4.76q4.47-1.26,13.17-1.26h15.59q12,0,19.56,7.27T321,235.63c0,.5.47.71,1.4.62s1.41-.37,1.41-.88l-.51-30.84a2,2,0,0,0-2.3-2.26H231.85c5.57,3.22,11,6.58,16.29,10.17A64.19,64.19,0,0,1,256.85,219.55ZM325.6,334.14q-1.53-.25-1.53.51-2.55,15-10.86,23.79a27.21,27.21,0,0,1-20.58,8.78H272.18q-8.43,0-12.65-1.28a8.92,8.92,0,0,1-5.88-4.83c-1.11-2.37-1.66-5.77-1.66-10.18V296.56c-5.08,3.35-11.49,6.74-16.36,7.67V352q0,7.38-1.66,11.2a8.94,8.94,0,0,1-6.26,5.08q-4.61,1.27-14.06,1.27-.51,0-.51,1.53t.51,1.53h107.1c2.72,0,4.09-1.27,4.09-3.82q0-8.14.64-17.55t1.66-16C327.14,334.65,326.63,334.31,325.6,334.14Zm-83.79-90.35a60.4,60.4,0,0,0-6.44-7.79v55.57c4.33-2.26,5.46-3.24,7.59-6.17a24.37,24.37,0,0,0,1.43-2.44h0a25.33,25.33,0,0,0,1.22-2.57h0a37.06,37.06,0,0,0,2.4-13.91Q248,252.83,241.81,243.79ZM264,232.87a59.2,59.2,0,0,0-7.18-8.65,64.58,64.58,0,0,0-8.72-7.28c-5.27-3.66-10.73-7.09-16.31-10.39-1.22-.72-2.41-1.47-3.64-2.17q-10-6.15-19-12.29a56.71,56.71,0,0,1-14.65-14.39q-5.73-8.23-5.72-19.69A36.58,36.58,0,0,1,192,142.79a27.61,27.61,0,0,1,10-11.74q6.84-4.61,17.72-4.61,10.32,0,17.58,3.91a37.67,37.67,0,0,1,12,10.06,48.91,48.91,0,0,1,7.25,13,52.08,52.08,0,0,1,3.07,12.43,1.76,1.76,0,0,0,1.95,1c.93-.08,1.4-.5,1.4-1.25l-2-31.84a4.28,4.28,0,0,0-1-2.66A7.22,7.22,0,0,0,256.9,129a72.15,72.15,0,0,0-16.46-5.17,90.07,90.07,0,0,0-16.19-1.54A67,67,0,0,0,199.42,127a45.48,45.48,0,0,0-19.53,14.39q-7.53,9.63-7.53,24.44,0,13.13,5.72,21.93A56.05,56.05,0,0,0,192.86,203q9.06,6.44,18.84,12.57a206.49,206.49,0,0,1,19.53,12.57,62.59,62.59,0,0,1,9,8,58.89,58.89,0,0,1,6.21,7.82q6,9.07,6,22.76a38.43,38.43,0,0,1-2.33,14,22.71,22.71,0,0,1-1.19,2.59,23.11,23.11,0,0,1-1.37,2.45,28.15,28.15,0,0,1-7.33,7.2,27.14,27.14,0,0,1-5.22,2.85,41.89,41.89,0,0,1-15.77,3.08,40.85,40.85,0,0,1-19.53-4.47,45.74,45.74,0,0,1-14.23-11.73A65.41,65.41,0,0,1,176,266.66a106.64,106.64,0,0,1-5.58-17c-.19-.75-.79-1.08-1.81-1s-1.44.61-1.26,1.53l3.63,38a19,19,0,0,0,.7,3.21,3.91,3.91,0,0,0,1.81,2.1,91.46,91.46,0,0,0,13,5.58,75.29,75.29,0,0,0,13.11,3.22,90,90,0,0,0,13.25,1c10.62,0,19.69-1.65,27.41-4.75,1.34-.54,2.73-1,4-1.67a51.53,51.53,0,0,0,12.4-8.73c.71-.68,1.4-1.38,2.06-2.1a43.71,43.71,0,0,0,4.23-5.38c.22-.33.5-.63.71-1a44.8,44.8,0,0,0,6.69-24.16Q270.29,242.08,264,232.87Z"/></svg>