<svg id="Слой_1" data-name="Слой 1" xmlns="http://www.w3.org/2000/svg" viewBox="0 0 1215 576"><defs><style>.cls-1{fill:#ebe4da;}.cls-2{fill:#242e24;}</style></defs><g id="logo_b"><rect class="cls-1" x="462.97" y="489.04" width="684" height="3"/><path class="cls-2" d="M225.66,504l-1.1-.38c-22.52-7.9-61.36-30.21-93.43-60.53C101.9,415.44,67.05,370.5,67.05,313.43v-183h3.32c75.41,0,152.55-56.38,153.32-56.95l2-1.46,2,1.46c.77.56,78,57,153.33,57h3.31v183c0,57.07-34.85,102-64.08,129.66-32.06,30.32-70.91,52.63-93.43,60.53Zm-152-367V313.43c0,98.51,110.23,168.37,152,183.55,41.75-15.18,152-85,152-183.55V137c-70.53-1.43-139.3-47.81-152-56.8C213,89.18,144.22,135.56,73.68,137Z"/><path class="cls-2" d="M239.11,324.25a42.73,42.73,0,0,0,4-5.22h23.58q11.5,0,16.42-4.1t4.91-13.3c0-.33.48-.5,1.44-.5s1.44.17,1.44.5q0,7.46-.12,11.56t-.12,8.57c0,3.82.08,7.54.24,11.19s.24,7.54.24,11.68c0,.34-.48.5-1.44.5s-1.43-.16-1.43-.5q0-10.94-5.16-15.66T266,324.25Zm-7-63.55a18.47,18.47,0,0,1,1.39-5.82,8.76,8.76,0,0,1,5.93-4.63q4.33-1.22,12.74-1.22h15.09q11.61,0,18.92,7.06t8,20.2c0,.49.46.7,1.36.61s1.36-.36,1.36-.85l-.49-29.94a2,2,0,0,0-2.23-2.19H207.93c5.39,3.13,10.67,6.39,15.76,9.87A62.13,62.13,0,0,1,232.11,260.7Zm66.43,110c-1-.16-1.48,0-1.48.49Q294.6,385.6,286.58,394a26.31,26.31,0,0,1-19.86,8.43H247q-8.13,0-12.2-1.22a8.62,8.62,0,0,1-5.68-4.64q-1.61-3.42-1.6-9.78V334.6c-4.9,3.22-11.09,6.47-15.78,7.37V387.8q0,7.09-1.61,10.76a8.63,8.63,0,0,1-6,4.88q-4.44,1.23-13.57,1.22c-.33,0-.49.49-.49,1.47s.16,1.47.49,1.47H293.85q3.94,0,3.95-3.67,0-7.81.62-16.86t1.6-15.4C300,371.18,299.53,370.86,298.54,370.69Zm-80.76-86.61a55.94,55.94,0,0,0-6.1-7.42v53c4.1-2.16,5.18-3.1,7.2-5.89a21.16,21.16,0,0,0,1.35-2.33h0a23,23,0,0,0,1.16-2.45h0a35.46,35.46,0,0,0,2.28-13.26Q223.68,292.72,217.78,284.08Zm21.35-10.69a56.65,56.65,0,0,0-6.91-8.27,62,62,0,0,0-8.38-6.95c-5.06-3.51-10.31-6.79-15.67-9.93-1.18-.69-2.32-1.41-3.5-2.08q-9.66-5.88-18.24-11.75a54.27,54.27,0,0,1-14.08-13.75q-5.5-7.87-5.5-18.82a34.8,34.8,0,0,1,3.09-14.55,26.5,26.5,0,0,1,9.65-11.22q6.57-4.4,17-4.4,9.91,0,16.9,3.74A35.89,35.89,0,0,1,225.05,185a46.29,46.29,0,0,1,7,12.41A49.15,49.15,0,0,1,235,209.31a1.7,1.7,0,0,0,1.88.94c.89-.09,1.34-.49,1.34-1.2l-1.88-30.44a4,4,0,0,0-.94-2.54,6.84,6.84,0,0,0-3.08-2,69.59,69.59,0,0,0-15.82-4.94,87.6,87.6,0,0,0-15.56-1.47A64.76,64.76,0,0,0,177,172.2,43.75,43.75,0,0,0,158.27,186Q151,195.16,151,209.31q0,12.56,5.5,21a53.5,53.5,0,0,0,14.21,14.55q8.72,6.15,18.1,12a198.72,198.72,0,0,1,18.78,12,60.93,60.93,0,0,1,8.64,7.61,57.67,57.67,0,0,1,6,7.47q5.78,8.69,5.77,21.76A36.53,36.53,0,0,1,225.77,319a23.47,23.47,0,0,1-1.15,2.48,20.46,20.46,0,0,1-1.32,2.34,26.73,26.73,0,0,1-7,6.88,26.41,26.41,0,0,1-5,2.73,40.58,40.58,0,0,1-15.15,2.93,39.45,39.45,0,0,1-18.78-4.27,43.77,43.77,0,0,1-13.67-11.21,62.31,62.31,0,0,1-9.12-15.22,101.52,101.52,0,0,1-5.37-16.28c-.18-.71-.76-1-1.74-.94s-1.39.58-1.21,1.47l3.49,36.31a18,18,0,0,0,.67,3.07,3.74,3.74,0,0,0,1.74,2,88.58,88.58,0,0,0,12.47,5.34,73.06,73.06,0,0,0,12.61,3.07,87.15,87.15,0,0,0,12.74.93c10.2,0,18.92-1.57,26.34-4.54,1.29-.52,2.62-1,3.83-1.6A49.17,49.17,0,0,0,232,326.17c.68-.64,1.34-1.31,2-2a41,41,0,0,0,4.07-5.14c.21-.32.47-.6.68-.92a42.67,42.67,0,0,0,6.43-23.1Q245.16,282.2,239.13,273.39Z"/><path class="cls-2" d="M472.84,220.37a16,16,0,0,0,2.72,9.36,27,27,0,0,0,7,6.83c2.83,1.95,5.85,3.9,9,5.84s6.44,3.85,9.49,6a29.25,29.25,0,0,1,7.57,7.56,18.69,18.69,0,0,1,3,10.76,21.18,21.18,0,0,1-3.19,11.48,22.51,22.51,0,0,1-9.23,8.17q-6,3-14.93,3a42.58,42.58,0,0,1-6.3-.46,35.06,35.06,0,0,1-6.24-1.53,43.12,43.12,0,0,1-6.18-2.66,1.82,1.82,0,0,1-.86-1,7.72,7.72,0,0,1-.33-1.53l-1.73-18.05c-.09-.45.11-.69.6-.73s.77.11.86.46a49.71,49.71,0,0,0,2.66,8.1,31.15,31.15,0,0,0,4.51,7.57,21.77,21.77,0,0,0,6.77,5.57,19.42,19.42,0,0,0,9.29,2.13,20.06,20.06,0,0,0,7.5-1.46,13.17,13.17,0,0,0,6-4.78q2.32-3.32,2.32-9a19.23,19.23,0,0,0-2.85-10.82,29.26,29.26,0,0,0-7.24-7.5,97.77,97.77,0,0,0-9.29-6q-4.65-2.91-9-6a26.59,26.59,0,0,1-7-7.24A18.71,18.71,0,0,1,465,224.08a18.26,18.26,0,0,1,3.59-11.61,21.61,21.61,0,0,1,9.29-6.84,31.91,31.91,0,0,1,11.81-2.26,42.37,42.37,0,0,1,7.7.74,33.87,33.87,0,0,1,7.84,2.45,3.44,3.44,0,0,1,1.52,1,2,2,0,0,1,.47,1.26l.93,15.13c0,.36-.22.56-.67.6a.84.84,0,0,1-.93-.47,23.88,23.88,0,0,0-1.46-5.9,22.82,22.82,0,0,0-3.45-6.18,17.92,17.92,0,0,0-5.71-4.78,17.53,17.53,0,0,0-8.36-1.85,14.74,14.74,0,0,0-8.43,2.19,13.14,13.14,0,0,0-4.78,5.57A17.38,17.38,0,0,0,472.84,220.37Z"/><path class="cls-2" d="M564.74,281.1c-.17-.48-.48-.64-.92-.46a19.24,19.24,0,0,1-6.64,1.72,4.07,4.07,0,0,1-3.85-2.12q-1.2-2.12-1.2-6.77V248.64q0-6.36-2.79-9.89c-1.85-2.34-4.6-3.51-8.23-3.51a27.49,27.49,0,0,0-7.5,1.19,39.25,39.25,0,0,0-8,3.25,28.17,28.17,0,0,0-6.24,4.45A6.91,6.91,0,0,0,517,249a4,4,0,0,0,4.38,4q2.79,0,3.72-1.8a14.6,14.6,0,0,0,1.33-3.65,20.57,20.57,0,0,1,1.39-4.25,10,10,0,0,1,3.12-3.91,8.56,8.56,0,0,1,5.44-1.66,7,7,0,0,1,6,3.32q2.32,3.31,2.33,11.55v9l-14.61,5.48a44.22,44.22,0,0,0-7.83,3.58,13.2,13.2,0,0,0-4.44,4.05A9.12,9.12,0,0,0,519.08,286c1.76,1.81,4.33,2.72,7.69,2.72a16,16,0,0,0,5.38-.93,27.33,27.33,0,0,0,5.78-3.06l6.87-4.46a14.35,14.35,0,0,0,1.49,5.73q1.59,2.85,3.32,2.85a2.32,2.32,0,0,0,1.06-.27l13.67-6.5A.68.68,0,0,0,564.74,281.1Zm-25.62.6a14.21,14.21,0,0,1-3.58,1.73,10.92,10.92,0,0,1-2.79.4,6.89,6.89,0,0,1-5.44-2.26,7.77,7.77,0,0,1-2-5.31,7,7,0,0,1,.73-3.19,7.65,7.65,0,0,1,2.32-2.66,17,17,0,0,1,4-2.12l12.35-4.77v14.2c0,.21,0,.41,0,.61Z"/><path class="cls-2" d="M614.27,193.48q-4.18-2.05-11.22-2-13.66,0-21.11,9.42t-8.09,31.46q-.14,3.33-2,4.65c-1.24.89-3.71,1.33-7.43,1.33-.27,0-.4.29-.4.86s.13.87.4.87a31.09,31.09,0,0,1,6.37.46,3.55,3.55,0,0,1,2.66,2,12.59,12.59,0,0,1,.66,4.71v29.87c0,3.81-.58,6.29-1.72,7.44s-3.63,1.72-7.44,1.72c-.27,0-.4.27-.4.8s.13.8.4.8c1.68,0,3.65-.05,5.91-.13s4.53-.14,6.84-.14q4.38,0,8.49.14c2.74.08,5.58.13,8.5.13.26,0,.4-.27.4-.8s-.14-.8-.4-.8a40,40,0,0,1-8.5-.66,4.88,4.88,0,0,1-3.65-2.65,15.47,15.47,0,0,1-.86-5.85V241c2.32.06,4.56.17,6.7.35a61.42,61.42,0,0,1,9.89,1.73c.36.09.67-.27.93-1.06a6.75,6.75,0,0,0,.4-2.13,8.23,8.23,0,0,0-.27-2.26c-.17-.61-.39-.93-.66-.93q-5.45.54-10.29.93c-2.18.18-4.42.28-6.7.34v-8.43q0-18.85,4.71-27.35t12-8.5a10.94,10.94,0,0,1,5.91,1.46,16.52,16.52,0,0,1,4.32,4.12,14.15,14.15,0,0,0,2.45,2.59,4.39,4.39,0,0,0,2.72.86,5.22,5.22,0,0,0,3.26-1.06,3.75,3.75,0,0,0,1.39-3.19Q618.45,195.55,614.27,193.48Z"/><path class="cls-2" d="M641.67,280.71c-.31-.4-.56-.51-.73-.34a64.24,64.24,0,0,1-5.84,3.06,18.16,18.16,0,0,1-7.44,1.32,18.86,18.86,0,0,1-11.28-3.32,20.45,20.45,0,0,1-7-9.16,35.2,35.2,0,0,1-2.39-13.4,40.1,40.1,0,0,1,.28-4.79l27.34-.13H640a1.23,1.23,0,0,0,1.26-.86,7.66,7.66,0,0,0,.33-2.59q0-7.17-3.91-11.15c-2.62-2.66-6.44-4-11.49-4a27.45,27.45,0,0,0-14.14,3.78,27.79,27.79,0,0,0-10.15,10.22,28.55,28.55,0,0,0-3.72,14.54,29,29,0,0,0,2.72,12.35,22.92,22.92,0,0,0,8.17,9.49,23.51,23.51,0,0,0,13.4,3.65,28.48,28.48,0,0,0,9.9-1.79,30.29,30.29,0,0,0,9.49-5.91C642,281.43,642,281.1,641.67,280.71ZM621.82,238a9.82,9.82,0,0,1,8.37,3.92q2.52,3.39,2.46,9.92l-25.17.45a21.48,21.48,0,0,1,3.39-8.71A12.62,12.62,0,0,1,621.82,238Z"/><path class="cls-2" d="M706.62,267.76c-.53-.09-.79,0-.79.27q-1.33,7.83-5.64,12.41A14.11,14.11,0,0,1,689.5,285H678.88a24.38,24.38,0,0,1-6.57-.66,4.67,4.67,0,0,1-3-2.53,12.86,12.86,0,0,1-.87-5.31V246h15.93q6.64,0,9.49,2.52t2.86,8.36c0,.18.26.27.8.27s.79-.09.79-.27q0-3.31-.13-6.23t-.13-6c0-1.59,0-3.12.06-4.58s.07-3.52.07-6.17c0-.18-.27-.27-.8-.27s-.79.09-.79.27q0,4.91-2.73,7.1t-9.09,2.19H668.39V216.25a13.29,13.29,0,0,1,.87-5.44,4.66,4.66,0,0,1,3.18-2.52,26.16,26.16,0,0,1,6.84-.67h8.1a13.9,13.9,0,0,1,10.15,3.85q3.91,3.85,4.32,11c0,.27.24.38.73.33s.73-.2.73-.46L703,206a1.06,1.06,0,0,0-1.19-1.2H648.48c-.18,0-.27.27-.27.8s.09.8.27.8a26.78,26.78,0,0,1,7.3.73,4.88,4.88,0,0,1,3.25,2.65,14.71,14.71,0,0,1,.87,5.78v61.46a15.25,15.25,0,0,1-.87,5.85,4.68,4.68,0,0,1-3.25,2.65,29.65,29.65,0,0,1-7.3.66c-.18,0-.27.27-.27.8s.09.8.27.8H704.1c1.42,0,2.13-.67,2.13-2q0-4.26.33-9.16c.22-3.28.51-6.06.86-8.37C707.42,268,707.16,267.85,706.62,267.76Z"/><path class="cls-2" d="M749.91,237a10.86,10.86,0,0,0-5.52-1.59,9.31,9.31,0,0,0-4.44,1.26,25.25,25.25,0,0,0-5.51,4.51q-2,2.09-4.78,5.28v-.17q0-5.3-1.46-8.09c-1-1.86-1.77-2.79-2.39-2.79a2.48,2.48,0,0,0-.8.13l-15.4,7.3c-.35.18-.42.49-.2.93s.51.62.86.53c1.51-.62,2.86-1.1,4.06-1.46a11.3,11.3,0,0,1,3.12-.53,3.7,3.7,0,0,1,3.65,2.06,15.68,15.68,0,0,1,1,6.44v26.28q0,5.58-1.52,7.37c-1,1.2-3.26,1.79-6.71,1.79-.26,0-.4.27-.4.8s.14.8.4.8c1.5,0,3.32-.05,5.44-.13s4.34-.14,6.64-.14q4.78,0,9.1.14c2.87.08,5.37.13,7.5.13.35,0,.53-.27.53-.8s-.18-.8-.53-.8a38.43,38.43,0,0,1-8.24-.66,5,5,0,0,1-3.71-2.72,14.41,14.41,0,0,1-.93-5.78v-28.5q2.16-2.49,3.58-4a15.62,15.62,0,0,1,3.59-3,5.66,5.66,0,0,1,2.52-.67,5.94,5.94,0,0,1,3.45.93,27.31,27.31,0,0,1,2.52,2,4.79,4.79,0,0,0,6.18-.14,4.09,4.09,0,0,0,1.13-2.92C752.63,239.31,751.72,238,749.91,237Z"/><path class="cls-2" d="M801,281.1c-.18-.48-.49-.64-.93-.46a19.14,19.14,0,0,1-6.64,1.72,4.08,4.08,0,0,1-3.85-2.12c-.8-1.41-1.19-3.67-1.19-6.77V248.64q0-6.36-2.79-9.89t-8.23-3.51a27.49,27.49,0,0,0-7.5,1.19,39.57,39.57,0,0,0-8,3.25,28.41,28.41,0,0,0-6.24,4.45,6.93,6.93,0,0,0-2.45,4.91,4.12,4.12,0,0,0,1.06,2.72,4.07,4.07,0,0,0,3.32,1.27q2.79,0,3.72-1.8a14.57,14.57,0,0,0,1.32-3.65,20.63,20.63,0,0,1,1.4-4.25,10,10,0,0,1,3.12-3.91,8.54,8.54,0,0,1,5.44-1.66,7.06,7.06,0,0,1,6,3.32q2.32,3.31,2.32,11.55v9l-14.6,5.48a43.89,43.89,0,0,0-7.83,3.58,13.34,13.34,0,0,0-4.45,4.05A9.15,9.15,0,0,0,755.28,286q2.65,2.72,7.7,2.72a16.06,16.06,0,0,0,5.38-.93,27.29,27.29,0,0,0,5.77-3.06l6.88-4.46A14.18,14.18,0,0,0,782.5,286c1.06,1.9,2.16,2.85,3.32,2.85a2.35,2.35,0,0,0,1.06-.27l13.67-6.5A.69.69,0,0,0,801,281.1Zm-25.62.6a14.25,14.25,0,0,1-3.59,1.73,10.8,10.8,0,0,1-2.79.4,6.9,6.9,0,0,1-5.44-2.26,7.82,7.82,0,0,1-2-5.31,7,7,0,0,1,.73-3.19,7.75,7.75,0,0,1,2.32-2.66,17.07,17.07,0,0,1,4-2.12l12.34-4.77v14.2c0,.21,0,.41,0,.61Z"/><path class="cls-2" d="M479.94,398.43a9.31,9.31,0,0,0,.79,4.32,4.62,4.62,0,0,0,3.29,2,36.64,36.64,0,0,0,7.52.57c.19,0,.28.19.28.56s-.09.57-.28.57q-3,0-6.45-.09c-2.32-.06-4.84-.1-7.56-.1-2,0-3.9,0-5.76.1s-3.52.09-5,.09q-.18,0-.18-.57c0-.37.06-.56.18-.56a21.62,21.62,0,0,0,5.29-.48,3.29,3.29,0,0,0,2.37-1.9,11.18,11.18,0,0,0,.6-4.17V354.9a10.84,10.84,0,0,0-.6-4.13,3.46,3.46,0,0,0-2.37-1.9,20.31,20.31,0,0,0-5.29-.52q-.18,0-.18-.57t.18-.57c1.49,0,3.14.05,5,.15s3.72.14,5.7.14q2.42,0,5.85-.29t7.15-.28a25.71,25.71,0,0,1,9.28,1.61,14.34,14.34,0,0,1,6.63,5,14.91,14.91,0,0,1,2.46,8.91,18.64,18.64,0,0,1-1.86,8.64,17.36,17.36,0,0,1-4.87,5.92,21.25,21.25,0,0,1-6.63,3.47,24,24,0,0,1-7.15,1.13c-.8,0-1.59,0-2.36-.09a11.26,11.26,0,0,1-2.18-.38c-.25-.06-.33-.3-.24-.71s.24-.59.42-.52a15.82,15.82,0,0,0,1.72.28,13.64,13.64,0,0,0,1.62.1,17.79,17.79,0,0,0,7.7-1.71,13.68,13.68,0,0,0,5.85-5.27,16.65,16.65,0,0,0,2.23-9,18,18,0,0,0-2-8.82,13.91,13.91,0,0,0-5.33-5.5,14.86,14.86,0,0,0-7.43-1.9,30.65,30.65,0,0,0-5.15.33,3.25,3.25,0,0,0-2.5,1.76,11.85,11.85,0,0,0-.7,4.84Z"/><path class="cls-2" d="M539,370.07a7.75,7.75,0,0,0-3.81-1,6.16,6.16,0,0,0-3.06.9,17.73,17.73,0,0,0-3.75,3.22c-1,1-2.14,2.39-3.49,4v-.56a13,13,0,0,0-1-5.65c-.65-1.29-1.19-1.94-1.62-1.94a1.09,1.09,0,0,0-.47.09l-10.3,4.94c-.25.12-.29.34-.14.66s.36.44.6.38c1.12-.44,2.11-.79,3-1a7.81,7.81,0,0,1,2.22-.38,2.67,2.67,0,0,1,2.6,1.47,11.08,11.08,0,0,1,.74,4.69v19q0,4.08-1.11,5.31t-4.92,1.24c-.19,0-.28.19-.28.56s.09.57.28.57c1,0,2.3,0,3.76-.09s2.95-.1,4.5-.1c2.16,0,4.24,0,6.22.1s3.71.09,5.19.09c.19,0,.28-.19.28-.57s-.09-.56-.28-.56a27.54,27.54,0,0,1-6-.48,3.59,3.59,0,0,1-2.65-1.9,10.45,10.45,0,0,1-.65-4.17V378.56c1.1-1.36,2-2.44,2.74-3.22a11.62,11.62,0,0,1,2.6-2.28,3.83,3.83,0,0,1,1.81-.52,4.51,4.51,0,0,1,2.51.61c.61.42,1.19.84,1.71,1.28a2.83,2.83,0,0,0,1.9.67,2.56,2.56,0,0,0,2-.76,2.48,2.48,0,0,0,.7-1.71A3,3,0,0,0,539,370.07Z"/><path class="cls-2" d="M578.58,378.8a18.71,18.71,0,0,0-6.12-7.3,16,16,0,0,0-9.56-2.85,21.44,21.44,0,0,0-6.78,1.14,20.63,20.63,0,0,0-6.35,3.46,17,17,0,0,0-4.69,5.93,19.3,19.3,0,0,0-1.76,8.53,22.92,22.92,0,0,0,2.18,9.92,18.14,18.14,0,0,0,6.22,7.35,16.5,16.5,0,0,0,9.51,2.75,20.27,20.27,0,0,0,9.7-2.37,18.73,18.73,0,0,0,7.1-6.74,19.53,19.53,0,0,0,2.69-10.43A21.37,21.37,0,0,0,578.58,378.8Zm-6.4,23.66a10.64,10.64,0,0,1-8.35,3.56,12,12,0,0,1-8-2.89,19,19,0,0,1-5.34-7.73,28.27,28.27,0,0,1-1.9-10.44q0-7,3-10.76a9.94,9.94,0,0,1,8.26-3.75,13,13,0,0,1,8.12,2.66,17.48,17.48,0,0,1,5.43,7.21,26.17,26.17,0,0,1,1.94,10.33Q575.33,398.92,572.18,402.46Z"/><path class="cls-2" d="M623.22,376.62a14.53,14.53,0,0,0-5.15-5.93,12.8,12.8,0,0,0-7-2,17,17,0,0,0-8.81,2.61,34,34,0,0,0-7.25,6.12,17,17,0,0,0-.87-6.12c-.59-1.43-1.32-2.14-2.18-2.14a1.74,1.74,0,0,0-.75.19L581.64,374c-.24.13-.29.35-.13.66s.35.45.6.38a17,17,0,0,1,2.87-1.09,9.31,9.31,0,0,1,2.23-.33,2.7,2.7,0,0,1,2.69,1.57,12.25,12.25,0,0,1,.74,5v44.76c0,2.72-.36,4.49-1.11,5.32s-2.38,1.23-4.92,1.23c-.18,0-.28.19-.28.57s.1.57.28.57c1.06,0,2.32,0,3.81-.1s3-.09,4.54-.09q3.25,0,6.22.09c2,.06,3.77.1,5.39.1q.18,0,.18-.57t-.18-.57a27.15,27.15,0,0,1-6.08-.52A3.93,3.93,0,0,1,595.7,429a9.61,9.61,0,0,1-.69-4.08V404.64a17.27,17.27,0,0,0,4,2.14,19.17,19.17,0,0,0,6.27,1,18.08,18.08,0,0,0,6.35-1.28,22.57,22.57,0,0,0,6.5-3.89,19.67,19.67,0,0,0,5.06-6.69,22.46,22.46,0,0,0,1.95-9.77A21,21,0,0,0,623.22,376.62Zm-6.54,24.75q-3.39,4.45-8.31,4.46a15.1,15.1,0,0,1-8.54-2.18,26.44,26.44,0,0,1-4.82-4.22V378.94a43.92,43.92,0,0,1,5.19-4.7,12.12,12.12,0,0,1,7.52-2.46,10.89,10.89,0,0,1,8.77,4.41q3.57,4.41,3.57,12.85Q620.06,396.92,616.68,401.37Z"/><path class="cls-2" d="M659.36,401.61q-.33-.44-.51-.24a37.71,37.71,0,0,1-4,2.23,12.3,12.3,0,0,1-5.33,1,12.83,12.83,0,0,1-7.89-2.42,15,15,0,0,1-4.92-6.64A25.78,25.78,0,0,1,635,386a28.8,28.8,0,0,1,.24-3.71l19.62-.09h3.43a.86.86,0,0,0,.88-.57,5,5,0,0,0,.24-1.8,11.46,11.46,0,0,0-2.6-7.87q-2.59-2.94-7.89-2.94a18,18,0,0,0-9.6,2.7,19.84,19.84,0,0,0-7,7.31,20.72,20.72,0,0,0-2.6,10.38,21.41,21.41,0,0,0,1.86,8.82,16.2,16.2,0,0,0,5.52,6.78,15.35,15.35,0,0,0,9.14,2.61A19.12,19.12,0,0,0,653,406.4a21.48,21.48,0,0,0,6.54-4.08C659.62,402.13,659.58,401.89,659.36,401.61ZM646,370.93a7.65,7.65,0,0,1,6.17,2.7q2,2.37,1.88,7.17l-18.59.34a15.12,15.12,0,0,1,2.47-6.18A9.34,9.34,0,0,1,646,370.93Z"/><path class="cls-2" d="M690,370.07a7.75,7.75,0,0,0-3.81-1,6.16,6.16,0,0,0-3.06.9,17.73,17.73,0,0,0-3.75,3.22c-1,1-2.14,2.39-3.49,4v-.56a13,13,0,0,0-1-5.65c-.65-1.29-1.19-1.94-1.62-1.94a1.09,1.09,0,0,0-.47.09l-10.3,4.94c-.25.12-.29.34-.14.66s.36.44.6.38c1.12-.44,2.11-.79,3-1a7.81,7.81,0,0,1,2.22-.38,2.67,2.67,0,0,1,2.6,1.47,11.08,11.08,0,0,1,.74,4.69v19q0,4.08-1.11,5.31t-4.92,1.24c-.19,0-.28.19-.28.56s.09.57.28.57c1.05,0,2.3,0,3.76-.09s3-.1,4.5-.1c2.16,0,4.24,0,6.22.1s3.71.09,5.19.09c.19,0,.28-.19.28-.57s-.09-.56-.28-.56a27.54,27.54,0,0,1-6-.48,3.59,3.59,0,0,1-2.65-1.9,10.45,10.45,0,0,1-.65-4.17V378.56c1.1-1.36,2-2.44,2.74-3.22a11.62,11.62,0,0,1,2.6-2.28,3.83,3.83,0,0,1,1.81-.52,4.51,4.51,0,0,1,2.51.61c.61.42,1.19.84,1.71,1.28a2.83,2.83,0,0,0,1.9.67,2.56,2.56,0,0,0,2-.76,2.47,2.47,0,0,0,.69-1.71A3,3,0,0,0,690,370.07Z"/><path class="cls-2" d="M721.12,402.37c-.19-.29-.41-.37-.65-.24a13.94,13.94,0,0,1-3.11,1.76,11.38,11.38,0,0,1-4.41.8,7.52,7.52,0,0,1-5.61-1.94q-1.9-2-1.91-5.93V373c2.07,0,4,.1,5.9.23a38.47,38.47,0,0,1,6.91,1.18c.25.07.46-.17.65-.71a4.63,4.63,0,0,0,.28-1.47,5.62,5.62,0,0,0-.19-1.56c-.12-.41-.28-.62-.46-.62-2.54.25-4.94.48-7.19.67-1.91.16-3.88.23-5.9.26v-6.9c0-.19-.23-.29-.69-.29s-.7.1-.7.29a6.52,6.52,0,0,1-2.18,5,8.13,8.13,0,0,1-5.71,2c-.18,0-.27.19-.27.56s.09.57.27.57a11.43,11.43,0,0,1,3.25.34,1.88,1.88,0,0,1,1.3,1.42,15.12,15.12,0,0,1,.28,3.46V400a7.49,7.49,0,0,0,1.21,4.51,6.53,6.53,0,0,0,3.2,2.37,12.59,12.59,0,0,0,4.22.71,14.39,14.39,0,0,0,5.38-1,30.36,30.36,0,0,0,6-3.51A.47.47,0,0,0,721.12,402.37Z"/><path class="cls-2" d="M760.74,369.88c.18,0,.28.19.28.57s-.1.57-.28.57a5.54,5.54,0,0,0-3.71,1.33c-1.06.89-2,2.62-3,5.21l-11.6,31.59a92.87,92.87,0,0,1-6.41,14.37A22,22,0,0,1,729.7,431a13.2,13.2,0,0,1-7.47,2.18,5.67,5.67,0,0,1-3.11-.85,2.91,2.91,0,0,1-1.35-2.65,2.12,2.12,0,0,1,.79-1.76,2.75,2.75,0,0,1,1.72-.62,6.08,6.08,0,0,1,2.83.53c.65.34,1.27.71,1.86,1.09a4.27,4.27,0,0,0,2.36.57,6.26,6.26,0,0,0,4.46-2.19,28.16,28.16,0,0,0,4.59-7.39,127.14,127.14,0,0,0,5.54-12.57L727.8,377.75a26.87,26.87,0,0,0-3.21-5.45,3.77,3.77,0,0,0-2.92-1.28q-.18,0-.18-.57t.18-.57c.93,0,1.89,0,2.88.1s2,.09,2.87.09q3,0,5.25-.09c1.51-.07,2.89-.1,4.13-.1q.18,0,.18.57t-.18.57a11.51,11.51,0,0,0-4.6.76q-1.71.77-.6,2.94l13,25.25,7.5-22c.93-2.78.89-4.63-.1-5.54S748.8,371,745.33,371q-.18,0-.18-.57t.18-.57c1.49,0,2.89,0,4.23.1s3,.09,5.15.09q1.95,0,3.15-.09C758.66,369.91,759.63,369.88,760.74,369.88Z"/><path class="cls-2" d="M822.45,350.79a57.75,57.75,0,0,1,7.1.38,27.45,27.45,0,0,1,5.53,1.26,40.19,40.19,0,0,1,5.41,2.38,2.52,2.52,0,0,1,.68.61,4.92,4.92,0,0,1,.23,1.45l1.1,10.67c0,.13-.17.24-.5.33s-.54,0-.6-.23q-2-7.77-6.64-11.65t-12.31-3.89a28.09,28.09,0,0,0-14.19,3.46,23.87,23.87,0,0,0-9.39,9.83,31.73,31.73,0,0,0-3.34,15,31.07,31.07,0,0,0,2.15,11.52,30.56,30.56,0,0,0,6,9.54,28.69,28.69,0,0,0,8.65,6.46,23.55,23.55,0,0,0,10.35,2.34q7.88,0,12.64-3.89T842,395q.09-.27.6-.18c.33.06.5.15.5.28l-.73,9.92a3.5,3.5,0,0,1-.28,1.4,2.57,2.57,0,0,1-.73.66,35.86,35.86,0,0,1-9,3.55,45.63,45.63,0,0,1-9.84.94,36,36,0,0,1-17-3.89,28.83,28.83,0,0,1-11.63-10.9,31,31,0,0,1-4.21-16.28,29.61,29.61,0,0,1,2.42-12.17,27.19,27.19,0,0,1,6.87-9.36,31.13,31.13,0,0,1,10.4-6A38.82,38.82,0,0,1,822.45,350.79Z"/><path class="cls-2" d="M882.6,383a18.48,18.48,0,0,0-6-7.21,15.82,15.82,0,0,0-9.43-2.81,21.43,21.43,0,0,0-6.69,1.12,20.45,20.45,0,0,0-6.27,3.42,16.79,16.79,0,0,0-4.62,5.85,19,19,0,0,0-1.74,8.42,22.56,22.56,0,0,0,2.15,9.78,17.75,17.75,0,0,0,6.14,7.25,16.23,16.23,0,0,0,9.38,2.72,19.88,19.88,0,0,0,9.57-2.34,18.23,18.23,0,0,0,7-6.65,19.22,19.22,0,0,0,2.66-10.29A21.1,21.1,0,0,0,882.6,383Zm-6.31,23.34a10.5,10.5,0,0,1-8.25,3.51,11.86,11.86,0,0,1-7.87-2.85,18.64,18.64,0,0,1-5.26-7.63A27.68,27.68,0,0,1,853,389.07q0-6.93,2.93-10.62a9.8,9.8,0,0,1,8.15-3.7,12.82,12.82,0,0,1,8,2.62,17.38,17.38,0,0,1,5.36,7.11,25.77,25.77,0,0,1,1.92,10.2Q879.4,402.83,876.29,406.33Z"/><path class="cls-2" d="M929.48,409.19q-3.84,0-4.9-1.22c-.7-.81-1.05-2.55-1.05-5.24V384.3q0-5.81-2.74-8.57C919,373.89,916.36,373,913,373a14.56,14.56,0,0,0-8,2.53,28.41,28.41,0,0,0-6.14,5.66v-.33a12.81,12.81,0,0,0-1-5.57c-.64-1.27-1.17-1.91-1.6-1.91a1,1,0,0,0-.46.09l-10.16,4.87c-.25.12-.29.34-.14.65s.35.44.59.37q1.65-.65,2.94-1a8,8,0,0,1,2.19-.38,2.65,2.65,0,0,1,2.57,1.45,11,11,0,0,1,.73,4.64v18.71c0,2.69-.37,4.43-1.1,5.24s-2.35,1.22-4.85,1.22c-.19,0-.28.19-.28.56s.09.56.28.56c1,0,2.27,0,3.7-.09s2.92-.1,4.45-.1,3,0,4.39.1,2.63.09,3.66.09c.19,0,.28-.19.28-.56s-.09-.56-.28-.56q-3.84,0-4.9-1.22c-.7-.81-1.05-2.55-1.05-5.24V382.58a20.24,20.24,0,0,1,4.53-4.09,13.07,13.07,0,0,1,7.1-2.34c3,0,5.19.88,6.59,2.62s2.11,4.53,2.11,8.33v15.63c0,2.69-.37,4.43-1.1,5.24s-2.35,1.22-4.85,1.22c-.19,0-.28.19-.28.56s.09.56.28.56c1,0,2.27,0,3.7-.09s2.92-.1,4.45-.1,3,0,4.39.1,2.62.09,3.66.09c.19,0,.28-.19.28-.56S929.67,409.19,929.48,409.19Z"/><path class="cls-2" d="M936.72,380.18a7.19,7.19,0,0,0,1.23,4.26,10.45,10.45,0,0,0,3.21,2.9q2,1.17,4.07,2.29a40.2,40.2,0,0,1,4.49,2.48,13,13,0,0,1,3.48,3.23,8.06,8.06,0,0,1,1.37,4.86,10.91,10.91,0,0,1-1.46,5.53,10.79,10.79,0,0,1-4.35,4.07,14.7,14.7,0,0,1-7,1.54,15.25,15.25,0,0,1-4.3-.61,13,13,0,0,1-4.3-2.29,2.33,2.33,0,0,1-.37-.47,1.15,1.15,0,0,1-.18-.65l-.19-6.74q0-.29.51-.33c.33,0,.53.05.59.24a18.56,18.56,0,0,0,2.8,5.19,10.09,10.09,0,0,0,3.61,2.95,10.58,10.58,0,0,0,4.49.93,7,7,0,0,0,4.9-1.54,5.52,5.52,0,0,0,1.51-4.63,7.46,7.46,0,0,0-1.38-4.4,10.72,10.72,0,0,0-3.2-2.81c-1.28-.75-2.63-1.46-4-2.15s-3-1.55-4.35-2.39a11,11,0,0,1-3.39-3.23,8.88,8.88,0,0,1-1.32-5.05,9,9,0,0,1,1.83-5.85,11.12,11.12,0,0,1,4.62-3.42,15.61,15.61,0,0,1,5.82-1.12,16.76,16.76,0,0,1,3.29.33,13.49,13.49,0,0,1,3.21,1.08,1.13,1.13,0,0,1,.82,1q0,1.41-.09,3c-.06,1.06-.09,2.21-.09,3.46,0,.13-.19.19-.55.19s-.55-.06-.55-.19a5.29,5.29,0,0,0-1.51-3.74,10.14,10.14,0,0,0-3.67-2.44,11.6,11.6,0,0,0-4.25-.84,5.56,5.56,0,0,0-3.9,1.31A5.27,5.27,0,0,0,936.72,380.18Z"/><path class="cls-2" d="M1000,405.49c-.13-.34-.34-.45-.65-.32-1.16.43-2.13.78-2.93,1a7.28,7.28,0,0,1-2.19.37,2.72,2.72,0,0,1-2.61-1.45,10.29,10.29,0,0,1-.78-4.63V374a.55.55,0,0,0-.28-.47.87.87,0,0,0-.45-.18.72.72,0,0,0-.28.09l-9.61,4.4c-.25.06-.31.28-.18.65s.3.5.55.38a7.7,7.7,0,0,1,3.29-.94,2.17,2.17,0,0,1,2.15,1.64,17.57,17.57,0,0,1,.6,5.47v16.23a21.11,21.11,0,0,1-5,4.22,14.27,14.27,0,0,1-7.5,2.3,6.64,6.64,0,0,1-5.77-2.67c-1.28-1.78-1.93-4.57-1.93-8.38V374a.56.56,0,0,0-.27-.47.9.9,0,0,0-.46-.18.87.87,0,0,0-.37.09l-9.61,4.4c-.24.06-.29.28-.14.65s.35.5.6.38a7.73,7.73,0,0,1,3.3-.94,2.1,2.1,0,0,1,2.1,1.64,19,19,0,0,1,.55,5.47v14.51q0,5.71,2.56,8.56a8.87,8.87,0,0,0,7,2.86,16.21,16.21,0,0,0,8.43-2.48,28.78,28.78,0,0,0,6.5-5.73v.91a12.81,12.81,0,0,0,1,5.57c.64,1.27,1.17,1.91,1.6,1.91a.84.84,0,0,0,.37-.09l10.25-4.86C1000.05,406.07,1000.11,405.84,1000,405.49Z"/><path class="cls-2" d="M1000.17,410.31c-.19,0-.28-.19-.28-.56s.09-.56.28-.56q3.75,0,4.85-1.22c.73-.81,1.1-2.55,1.1-5.24V354.16a13.91,13.91,0,0,0-.64-4.91,2.31,2.31,0,0,0-2.29-1.55,11.51,11.51,0,0,0-4.39,1.41c-.25.12-.45,0-.6-.38s-.11-.59.14-.65l11.26-5.53a1,1,0,0,1,.46-.09.65.65,0,0,1,.41.19.58.58,0,0,1,.23.47v59.61q0,3.93,1,5.2t4.9,1.26c.18,0,.27.19.27.56s-.09.56-.27.56c-1,0-2.28,0-3.71-.09s-2.94-.1-4.53-.1-3,0-4.49.1S1001.2,410.31,1000.17,410.31Z"/><path class="cls-2" d="M1044.85,406.24c-.18-.28-.4-.36-.64-.23a13.58,13.58,0,0,1-3.07,1.73,11.07,11.07,0,0,1-4.35.79,7.45,7.45,0,0,1-5.54-1.91q-1.87-1.92-1.87-5.85V377.29q3,0,5.81.22a38.24,38.24,0,0,1,6.82,1.17c.25.06.46-.17.64-.7a4.35,4.35,0,0,0,.28-1.45,5.2,5.2,0,0,0-.19-1.55q-.18-.6-.45-.6c-2.51.24-4.87.46-7.1.65-1.88.16-3.82.23-5.81.26v-6.81c0-.19-.23-.28-.69-.28s-.69.09-.69.28a6.4,6.4,0,0,1-2.15,5,8,8,0,0,1-5.63,2q-.27,0-.27.57c0,.37.09.56.27.56a11.28,11.28,0,0,1,3.21.33,1.86,1.86,0,0,1,1.28,1.4,15.47,15.47,0,0,1,.27,3.41V404a7.42,7.42,0,0,0,1.19,4.44,6.41,6.41,0,0,0,3.16,2.34,12.25,12.25,0,0,0,4.17.7,14.06,14.06,0,0,0,5.31-1,28.78,28.78,0,0,0,6-3.46A.47.47,0,0,0,1044.85,406.24Z"/><path class="cls-2" d="M1048.79,410.31c-.13,0-.19-.19-.19-.56s.06-.56.19-.56q3.75,0,4.9-1.22c.76-.81,1.14-2.55,1.14-5.24V385a13.72,13.72,0,0,0-.64-4.91,2.36,2.36,0,0,0-2.38-1.54,6.67,6.67,0,0,0-1.88.32,16.89,16.89,0,0,0-2.52,1.08c-.24.06-.44-.08-.59-.42s-.11-.58.14-.7l11.35-5.43a1.42,1.42,0,0,1,.37-.09.72.72,0,0,1,.41.18.6.6,0,0,1,.23.47c0,.44,0,1.64-.09,3.6s-.1,4.42-.1,7.35v17.78c0,2.69.35,4.43,1.06,5.24s2.33,1.22,4.89,1.22c.19,0,.28.19.28.56s-.09.56-.28.56q-1.55,0-3.66-.09c-1.4-.06-2.9-.1-4.48-.1s-3,0-4.4.1S1049.89,410.31,1048.79,410.31Z"/><path class="cls-2" d="M1056.2,362a3.72,3.72,0,0,1-2.7-.93,4.07,4.07,0,0,1,0-5.25,3.72,3.72,0,0,1,2.7-.93,3.45,3.45,0,0,1,2.57.93,3.61,3.61,0,0,1,.91,2.63Q1059.68,362,1056.2,362Z"/><path class="cls-2" d="M1110.13,409.19c-2.56,0-4.2-.41-4.9-1.22s-1-2.55-1-5.24V384.3q0-5.81-2.75-8.57t-7.78-2.76a14.53,14.53,0,0,0-8,2.53,28.18,28.18,0,0,0-6.14,5.66v-.33a12.81,12.81,0,0,0-1-5.57c-.64-1.27-1.18-1.91-1.6-1.91a1,1,0,0,0-.46.09l-10.17,4.87c-.24.12-.29.34-.13.65s.35.44.59.37c1.1-.43,2.08-.77,2.93-1a8.11,8.11,0,0,1,2.2-.38,2.64,2.64,0,0,1,2.56,1.45,10.85,10.85,0,0,1,.74,4.64v18.71c0,2.69-.37,4.43-1.1,5.24s-2.35,1.22-4.86,1.22c-.18,0-.27.19-.27.56s.09.56.27.56c1,0,2.28,0,3.71-.09s2.92-.1,4.44-.1,3,0,4.4.1,2.62.09,3.66.09c.19,0,.28-.19.28-.56s-.09-.56-.28-.56c-2.56,0-4.2-.41-4.9-1.22s-1-2.55-1-5.24V382.58a20.24,20.24,0,0,1,4.53-4.09,13,13,0,0,1,7.1-2.34c3,0,5.18.88,6.59,2.62s2.11,4.53,2.11,8.33v15.63c0,2.69-.37,4.43-1.1,5.24s-2.35,1.22-4.86,1.22c-.18,0-.27.19-.27.56s.09.56.27.56c1,0,2.28,0,3.71-.09s2.92-.1,4.44-.1,3,0,4.4.1,2.62.09,3.66.09c.18,0,.28-.19.28-.56S1110.31,409.19,1110.13,409.19Z"/><path class="cls-2" d="M1141.17,377a12.14,12.14,0,0,1,3.76.52c1,.34,1.76.61,2.19.8.25.12.45-.17.6-.89a9.93,9.93,0,0,0,.23-2,6.56,6.56,0,0,0-.14-1.31c-.09-.43-.2-.65-.32-.65a15.4,15.4,0,0,0-5.86,1.08,36.15,36.15,0,0,0-3.91,1.86,14.36,14.36,0,0,0-1.36-1,15,15,0,0,0-8-1.87,16.26,16.26,0,0,0-7.69,1.69,12.24,12.24,0,0,0-4.9,4.44,11.92,11.92,0,0,0,0,12.17,11.86,11.86,0,0,0,4.71,4.4h0a54.84,54.84,0,0,0-4.64,4.58,7.91,7.91,0,0,0-1.92,5.39,5.1,5.1,0,0,0,2,4.49,11.25,11.25,0,0,0,5.3,1.71,38.9,38.9,0,0,0-5.53,4.79,13.21,13.21,0,0,0-4,9.13,9.21,9.21,0,0,0,3.43,7.25q3.44,2.94,9.85,2.95a24.94,24.94,0,0,0,8.37-1.45,24.68,24.68,0,0,0,7.28-4,20.32,20.32,0,0,0,5.09-5.94,14.6,14.6,0,0,0,1.87-7.21,8.52,8.52,0,0,0-1.69-5.71,8.73,8.73,0,0,0-4.26-2.71,21.07,21.07,0,0,0-5.22-.84c-1.77-.06-3.33-.1-4.67-.1a52.74,52.74,0,0,1-8.33-.51,8.52,8.52,0,0,1-4.26-1.64,3.85,3.85,0,0,1-1.23-3,6.22,6.22,0,0,1,.91-3.23,14.91,14.91,0,0,1,3-3.32,16.71,16.71,0,0,0,6.07,1,15.39,15.39,0,0,0,7.7-1.77,12.38,12.38,0,0,0,4.71-4.59,11.7,11.7,0,0,0,1.6-5.89,13.2,13.2,0,0,0-1.28-5.53,9.85,9.85,0,0,0-2-2.83l.31-.07A12.52,12.52,0,0,1,1141.17,377Zm-4.48,36.18a9.33,9.33,0,0,1,5.17,2.1q1.88,1.69,1.88,5.52a11.47,11.47,0,0,1-4.35,9.46,17.22,17.22,0,0,1-11,3.46,16.16,16.16,0,0,1-6.82-1.26,8.87,8.87,0,0,1-4-3.56,10.41,10.41,0,0,1-1.32-5.29,10.86,10.86,0,0,1,1.55-6,14.53,14.53,0,0,1,4.12-4.11c.44-.3.9-.59,1.36-.88,1.79.12,3.71.18,5.78.18A61.83,61.83,0,0,1,1136.69,413.17Zm-1.84-18.72a7.2,7.2,0,0,1-5.31,2.11,10.19,10.19,0,0,1-4.89-1.31,10.64,10.64,0,0,1-4.08-4.17,14.54,14.54,0,0,1-1.65-7.35q0-4.86,2.11-6.87a7.34,7.34,0,0,1,5.31-2,9.72,9.72,0,0,1,5.4,1.55,10.93,10.93,0,0,1,3.8,4.35,14.74,14.74,0,0,1,1.42,6.74Q1137,392.34,1134.85,394.45Z"/></g></svg>