<svg id="Слой_1" data-name="Слой 1" xmlns="http://www.w3.org/2000/svg" viewBox="0 0 500 500"><defs><style>.cls-1{fill:#c4e040;}</style></defs><path id="monogram" class="cls-1" d="M279.69,316.44a77.82,77.82,0,0,0,7.47-9.71h44.41q21.65,0,30.9-7.63t9.25-24.74c0-.61.91-.92,2.71-.92s2.71.31,2.71.92q0,13.88-.23,21.51t-.23,15.94q0,10.65.46,20.82t.45,21.73c0,.61-.91.92-2.71.92s-2.7-.31-2.7-.92q0-20.36-9.71-29.14t-32.25-8.78ZM267,197.29a33.67,33.67,0,0,1,2.59-10.82q3-6.34,11.08-8.6t23.78-2.27h28.18q21.69,0,35.32,13.13t15,37.57c0,.91.84,1.29,2.54,1.14s2.54-.69,2.54-1.59l-.93-55.68q0-4.08-4.15-4.08H221.83c10.06,5.82,19.92,11.88,29.42,18.35A116.36,116.36,0,0,1,267,197.29ZM390.74,403.54c-1.84-.3-2.75,0-2.75.91q-4.61,27-19.53,42.7t-37,15.76H294.73q-15.17,0-22.74-2.28T261.42,452q-3-6.39-3-18.27V336.1c-9.14,6-20.66,12.1-29.4,13.77v85.64q0,13.25-3,20.09c-2,4.57-5.74,7.62-11.26,9.14S200.86,467,189.53,467c-.62,0-.92.91-.92,2.74s.3,2.74.92,2.74H382q7.35,0,7.35-6.85,0-14.61,1.15-31.51t3-28.77C393.5,404.45,392.58,403.85,390.74,403.54ZM240.1,240.91a107.22,107.22,0,0,0-11.59-14v100c7.79-4.08,9.83-5.84,13.67-11.12a39.32,39.32,0,0,0,2.55-4.39v0a42,42,0,0,0,2.21-4.63h0c2.81-7,4.33-15.25,4.33-25Q251.28,257.2,240.1,240.91Zm39.56-19.74a106.36,106.36,0,0,0-12.86-15.54,115.74,115.74,0,0,0-15.61-13.06C241.76,186,232,179.82,222,173.91c-2.18-1.29-4.3-2.65-6.51-3.91q-18-11-34-22.08a101.26,101.26,0,0,1-26.23-25.83Q145,107.3,145,86.72a65.81,65.81,0,0,1,5.75-27.34,49.6,49.6,0,0,1,18-21.08Q181,30,200.49,30q18.47,0,31.47,7a67,67,0,0,1,21.48,18.06,87.62,87.62,0,0,1,13,23.33,93.14,93.14,0,0,1,5.49,22.32,3.18,3.18,0,0,0,3.5,1.76c1.66-.16,2.5-.92,2.5-2.26l-3.5-57.19a7.73,7.73,0,0,0-1.75-4.77,12.8,12.8,0,0,0-5.74-3.76,129.37,129.37,0,0,0-29.47-9.28,161,161,0,0,0-29-2.76A119.55,119.55,0,0,0,164,31a81.54,81.54,0,0,0-35,25.83q-13.5,17.33-13.49,43.9,0,23.59,10.24,39.39a100.43,100.43,0,0,0,26.47,27.34Q168.51,179,186,190.07a370.07,370.07,0,0,1,35,22.57A114.15,114.15,0,0,1,237.07,227a107.15,107.15,0,0,1,11.12,14q10.74,16.31,10.75,40.88c0,9.79-1.46,18.07-4.16,25.07a44.05,44.05,0,0,1-2.13,4.66,40.41,40.41,0,0,1-2.46,4.39,50.23,50.23,0,0,1-13.12,12.94,49,49,0,0,1-9.36,5.12,74.84,74.84,0,0,1-28.22,5.52q-20,0-35-8a81.85,81.85,0,0,1-25.48-21.08,117.56,117.56,0,0,1-17-28.6,192.15,192.15,0,0,1-10-30.59c-.33-1.34-1.42-1.93-3.25-1.76s-2.58,1.09-2.24,2.75l6.49,68.23a33.29,33.29,0,0,0,1.25,5.77,7,7,0,0,0,3.25,3.77,164.58,164.58,0,0,0,23.22,10,134.71,134.71,0,0,0,23.48,5.77A160.25,160.25,0,0,0,188,347.59c19,0,35.25-3,49.07-8.54,2.4-1,4.88-1.85,7.13-3a92.26,92.26,0,0,0,22.2-15.69c1.27-1.22,2.49-2.48,3.67-3.76a78.38,78.38,0,0,0,7.59-9.67c.39-.6.88-1.13,1.26-1.73q12-19.32,12-43.4T279.66,221.17ZM151.59,426a19.53,19.53,0,1,0,19.56,19.53A19.54,19.54,0,0,0,151.59,426Z"/></svg>